<mxfile host="app.diagrams.net" modified="2023-08-09T08:07:37.135Z" agent="Mozilla/5.0 (Windows NT 10.0; Win64; x64) AppleWebKit/537.36 (KHTML, like Gecko) Chrome/115.0.0.0 Safari/537.36" etag="eikaExXcAj3vm6TR7jep" version="21.6.6" type="device" pages="6">
  <diagram name="Page-1" id="WJmbZIQWRXAQX9l7nTQ8">
    <mxGraphModel dx="2643" dy="1036" grid="0" gridSize="10" guides="1" tooltips="1" connect="1" arrows="1" fold="1" page="0" pageScale="1" pageWidth="850" pageHeight="1100" math="0" shadow="0">
      <root>
        <mxCell id="0" />
        <mxCell id="1" parent="0" />
        <mxCell id="Jk2P23yGDFoTC9rtima0-28" style="edgeStyle=orthogonalEdgeStyle;rounded=0;orthogonalLoop=1;jettySize=auto;html=1;entryX=1.082;entryY=0.436;entryDx=0;entryDy=0;entryPerimeter=0;fillColor=#d80073;strokeColor=#A50040;strokeWidth=2;" parent="1" source="Jk2P23yGDFoTC9rtima0-2" target="Jk2P23yGDFoTC9rtima0-5" edge="1">
          <mxGeometry relative="1" as="geometry" />
        </mxCell>
        <mxCell id="Jk2P23yGDFoTC9rtima0-2" value="" style="image;aspect=fixed;perimeter=ellipsePerimeter;html=1;align=center;shadow=0;dashed=0;spacingTop=3;image=img/lib/active_directory/internet_cloud.svg;" parent="1" vertex="1">
          <mxGeometry x="570" y="268.5" width="145.24" height="91.5" as="geometry" />
        </mxCell>
        <mxCell id="Jk2P23yGDFoTC9rtima0-12" style="edgeStyle=orthogonalEdgeStyle;rounded=0;orthogonalLoop=1;jettySize=auto;html=1;entryX=1;entryY=0.5;entryDx=0;entryDy=0;entryPerimeter=0;fillColor=#d80073;strokeColor=#A50040;strokeWidth=2;" parent="1" source="Jk2P23yGDFoTC9rtima0-3" target="Jk2P23yGDFoTC9rtima0-14" edge="1">
          <mxGeometry relative="1" as="geometry">
            <mxPoint x="120" y="490" as="targetPoint" />
          </mxGeometry>
        </mxCell>
        <mxCell id="Jk2P23yGDFoTC9rtima0-3" value="" style="sketch=0;pointerEvents=1;shadow=0;dashed=0;html=1;strokeColor=#006EAF;fillColor=#1ba1e2;labelPosition=center;verticalLabelPosition=bottom;verticalAlign=top;outlineConnect=0;align=center;shape=mxgraph.office.devices.ip_gateway;fontColor=#ffffff;" parent="1" vertex="1">
          <mxGeometry x="200" y="288.75" width="109" height="60" as="geometry" />
        </mxCell>
        <mxCell id="Jk2P23yGDFoTC9rtima0-40" style="edgeStyle=orthogonalEdgeStyle;rounded=0;orthogonalLoop=1;jettySize=auto;html=1;entryX=0;entryY=0.5;entryDx=0;entryDy=0;entryPerimeter=0;endArrow=none;endFill=0;" parent="1" source="Jk2P23yGDFoTC9rtima0-4" target="Jk2P23yGDFoTC9rtima0-14" edge="1">
          <mxGeometry relative="1" as="geometry">
            <mxPoint x="-43" y="460" as="sourcePoint" />
            <mxPoint y="293.74999999999994" as="targetPoint" />
            <Array as="points">
              <mxPoint x="-128" y="460" />
              <mxPoint x="-128" y="329" />
              <mxPoint x="-21" y="329" />
            </Array>
          </mxGeometry>
        </mxCell>
        <mxCell id="Jk2P23yGDFoTC9rtima0-4" value="" style="sketch=0;pointerEvents=1;shadow=0;dashed=0;html=1;strokeColor=#006EAF;fillColor=#1ba1e2;labelPosition=center;verticalLabelPosition=bottom;verticalAlign=top;outlineConnect=0;align=center;shape=mxgraph.office.devices.ip_gateway;fontColor=#ffffff;" parent="1" vertex="1">
          <mxGeometry x="-319" y="427" width="109" height="60" as="geometry" />
        </mxCell>
        <mxCell id="Jk2P23yGDFoTC9rtima0-11" style="edgeStyle=orthogonalEdgeStyle;rounded=0;orthogonalLoop=1;jettySize=auto;html=1;strokeWidth=2;fillColor=#d80073;strokeColor=#A50040;" parent="1" source="Jk2P23yGDFoTC9rtima0-5" target="Jk2P23yGDFoTC9rtima0-3" edge="1">
          <mxGeometry relative="1" as="geometry" />
        </mxCell>
        <mxCell id="Jk2P23yGDFoTC9rtima0-5" value="" style="verticalLabelPosition=bottom;sketch=0;html=1;fillColor=#1ba1e2;strokeColor=#006EAF;verticalAlign=top;pointerEvents=1;align=center;shape=mxgraph.cisco_safe.security_icons.firewall;fontColor=#ffffff;" parent="1" vertex="1">
          <mxGeometry x="420" y="295.25" width="70" height="47" as="geometry" />
        </mxCell>
        <mxCell id="Jk2P23yGDFoTC9rtima0-6" value="" style="sketch=0;outlineConnect=0;fontColor=#ffffff;fillColor=#1ba1e2;strokeColor=#006EAF;dashed=0;verticalLabelPosition=bottom;verticalAlign=top;align=center;html=1;fontSize=12;fontStyle=0;aspect=fixed;pointerEvents=1;shape=mxgraph.aws4.generic_firewall;" parent="1" vertex="1">
          <mxGeometry x="420" y="244" width="54.36" height="46" as="geometry" />
        </mxCell>
        <mxCell id="Jk2P23yGDFoTC9rtima0-9" style="edgeStyle=orthogonalEdgeStyle;rounded=0;orthogonalLoop=1;jettySize=auto;html=1;fillColor=#d80073;strokeColor=#A50040;strokeWidth=2;entryX=1;entryY=0.5;entryDx=0;entryDy=0;" parent="1" source="Jk2P23yGDFoTC9rtima0-8" target="Jk2P23yGDFoTC9rtima0-2" edge="1">
          <mxGeometry relative="1" as="geometry">
            <mxPoint x="846.38" y="106" as="sourcePoint" />
            <mxPoint x="639.0000000000003" y="276.5" as="targetPoint" />
          </mxGeometry>
        </mxCell>
        <mxCell id="Jk2P23yGDFoTC9rtima0-8" value="" style="shape=image;html=1;verticalAlign=top;verticalLabelPosition=bottom;labelBackgroundColor=#ffffff;imageAspect=0;aspect=fixed;image=https://cdn0.iconfinder.com/data/icons/software-engineering-and-video-gaming/512/77_hacker_user_gammer_programmer-128.png" parent="1" vertex="1">
          <mxGeometry x="837" y="250.25" width="128" height="128" as="geometry" />
        </mxCell>
        <mxCell id="Jk2P23yGDFoTC9rtima0-49" style="edgeStyle=orthogonalEdgeStyle;rounded=0;orthogonalLoop=1;jettySize=auto;html=1;entryX=0.555;entryY=0.424;entryDx=0;entryDy=0;entryPerimeter=0;strokeWidth=2;fillColor=#008a00;strokeColor=#005700;endArrow=none;endFill=0;exitX=0.648;exitY=0.652;exitDx=0;exitDy=0;exitPerimeter=0;" parent="1" source="Jk2P23yGDFoTC9rtima0-14" target="Jk2P23yGDFoTC9rtima0-30" edge="1">
          <mxGeometry relative="1" as="geometry">
            <mxPoint x="13.941176470588061" y="408.25" as="sourcePoint" />
            <Array as="points">
              <mxPoint x="18" y="364" />
              <mxPoint x="-74" y="364" />
              <mxPoint x="-74" y="824" />
              <mxPoint x="-88" y="824" />
              <mxPoint x="-88" y="843" />
            </Array>
          </mxGeometry>
        </mxCell>
        <mxCell id="Jk2P23yGDFoTC9rtima0-61" style="edgeStyle=orthogonalEdgeStyle;rounded=0;orthogonalLoop=1;jettySize=auto;html=1;entryX=-0.024;entryY=0.623;entryDx=0;entryDy=0;entryPerimeter=0;fillColor=#d80073;strokeColor=#A50040;strokeWidth=2;" parent="1" source="Jk2P23yGDFoTC9rtima0-14" target="Jk2P23yGDFoTC9rtima0-59" edge="1">
          <mxGeometry relative="1" as="geometry">
            <Array as="points">
              <mxPoint x="114" y="340" />
              <mxPoint x="114" y="414" />
            </Array>
          </mxGeometry>
        </mxCell>
        <mxCell id="Jk2P23yGDFoTC9rtima0-91" style="edgeStyle=orthogonalEdgeStyle;rounded=0;orthogonalLoop=1;jettySize=auto;html=1;" parent="1" target="Jk2P23yGDFoTC9rtima0-90" edge="1">
          <mxGeometry relative="1" as="geometry">
            <mxPoint x="-13.999999999999773" y="354.75" as="sourcePoint" />
            <mxPoint x="-50.00000000000023" y="541" as="targetPoint" />
            <Array as="points">
              <mxPoint x="-99" y="355" />
              <mxPoint x="-99" y="530" />
            </Array>
          </mxGeometry>
        </mxCell>
        <mxCell id="44LDf_YccPJd9R2KTV7_-2" style="edgeStyle=orthogonalEdgeStyle;rounded=0;orthogonalLoop=1;jettySize=auto;html=1;" parent="1" source="Jk2P23yGDFoTC9rtima0-14" target="44LDf_YccPJd9R2KTV7_-1" edge="1">
          <mxGeometry relative="1" as="geometry" />
        </mxCell>
        <mxCell id="Jk2P23yGDFoTC9rtima0-14" value="" style="sketch=0;points=[[0.015,0.015,0],[0.985,0.015,0],[0.985,0.985,0],[0.015,0.985,0],[0.25,0,0],[0.5,0,0],[0.75,0,0],[1,0.25,0],[1,0.5,0],[1,0.75,0],[0.75,1,0],[0.5,1,0],[0.25,1,0],[0,0.75,0],[0,0.5,0],[0,0.25,0]];verticalLabelPosition=bottom;html=1;verticalAlign=top;aspect=fixed;align=center;pointerEvents=1;shape=mxgraph.cisco19.rect;prIcon=l3_switch;fillColor=#1ba1e2;strokeColor=#006EAF;fontColor=#ffffff;" parent="1" vertex="1">
          <mxGeometry x="-21" y="293.75" width="61" height="61" as="geometry" />
        </mxCell>
        <mxCell id="Jk2P23yGDFoTC9rtima0-16" value="&lt;font style=&quot;font-size: 14px;&quot;&gt;IDS&lt;/font&gt;" style="text;html=1;strokeColor=none;fillColor=none;align=center;verticalAlign=middle;whiteSpace=wrap;rounded=0;" parent="1" vertex="1">
          <mxGeometry x="-299.5" y="393" width="60" height="30" as="geometry" />
        </mxCell>
        <mxCell id="Jk2P23yGDFoTC9rtima0-18" value="&lt;font style=&quot;font-size: 14px;&quot;&gt;IPS&lt;/font&gt;" style="text;html=1;strokeColor=none;fillColor=none;align=center;verticalAlign=middle;whiteSpace=wrap;rounded=0;" parent="1" vertex="1">
          <mxGeometry x="224.5" y="252" width="60" height="30" as="geometry" />
        </mxCell>
        <mxCell id="Jk2P23yGDFoTC9rtima0-38" value="" style="group" parent="1" vertex="1" connectable="0">
          <mxGeometry x="-431" y="830" width="261" height="82" as="geometry" />
        </mxCell>
        <mxCell id="Jk2P23yGDFoTC9rtima0-30" value="" style="line;strokeWidth=1;rotatable=0;dashed=0;labelPosition=right;align=left;verticalAlign=middle;spacingTop=0;spacingLeft=6;points=[];portConstraint=eastwest;" parent="Jk2P23yGDFoTC9rtima0-38" vertex="1">
          <mxGeometry width="240" height="30" as="geometry" />
        </mxCell>
        <mxCell id="Jk2P23yGDFoTC9rtima0-33" value="" style="verticalLabelPosition=bottom;html=1;verticalAlign=top;align=center;strokeColor=#006EAF;fillColor=#1ba1e2;shape=mxgraph.azure.laptop;pointerEvents=1;fontColor=#ffffff;" parent="Jk2P23yGDFoTC9rtima0-38" vertex="1">
          <mxGeometry x="191" y="32" width="70" height="50" as="geometry" />
        </mxCell>
        <mxCell id="Jk2P23yGDFoTC9rtima0-34" value="" style="verticalLabelPosition=bottom;html=1;verticalAlign=top;align=center;strokeColor=#006EAF;fillColor=#1ba1e2;shape=mxgraph.azure.laptop;pointerEvents=1;fontColor=#ffffff;" parent="Jk2P23yGDFoTC9rtima0-38" vertex="1">
          <mxGeometry x="21" y="30" width="70" height="50" as="geometry" />
        </mxCell>
        <mxCell id="Jk2P23yGDFoTC9rtima0-35" value="" style="verticalLabelPosition=bottom;html=1;verticalAlign=top;align=center;strokeColor=#006EAF;fillColor=#1ba1e2;shape=mxgraph.azure.laptop;pointerEvents=1;fontColor=#ffffff;" parent="Jk2P23yGDFoTC9rtima0-38" vertex="1">
          <mxGeometry x="111" y="32" width="70" height="50" as="geometry" />
        </mxCell>
        <mxCell id="Jk2P23yGDFoTC9rtima0-44" style="edgeStyle=orthogonalEdgeStyle;rounded=0;orthogonalLoop=1;jettySize=auto;html=1;entryX=0.649;entryY=0.982;entryDx=0;entryDy=0;entryPerimeter=0;fillColor=#f0a30a;strokeColor=#BD7000;strokeWidth=2;" parent="1" source="Jk2P23yGDFoTC9rtima0-41" target="Jk2P23yGDFoTC9rtima0-2" edge="1">
          <mxGeometry relative="1" as="geometry">
            <Array as="points">
              <mxPoint x="617" y="405" />
              <mxPoint x="664" y="405" />
            </Array>
          </mxGeometry>
        </mxCell>
        <mxCell id="Jk2P23yGDFoTC9rtima0-41" value="" style="pointerEvents=1;shadow=0;dashed=0;html=1;strokeColor=none;fillColor=#4495D1;labelPosition=center;verticalLabelPosition=bottom;verticalAlign=top;align=center;outlineConnect=0;shape=mxgraph.veeam.2d.proxy_appliance;" parent="1" vertex="1">
          <mxGeometry x="585" y="423.2" width="65" height="56.8" as="geometry" />
        </mxCell>
        <mxCell id="Jk2P23yGDFoTC9rtima0-42" value="&lt;font style=&quot;font-size: 14px;&quot;&gt;Proxy&lt;/font&gt;" style="text;html=1;strokeColor=none;fillColor=none;align=center;verticalAlign=middle;whiteSpace=wrap;rounded=0;" parent="1" vertex="1">
          <mxGeometry x="576" y="378.25" width="60" height="30" as="geometry" />
        </mxCell>
        <mxCell id="Jk2P23yGDFoTC9rtima0-43" value="&lt;font style=&quot;font-size: 14px;&quot;&gt;Firewall&amp;nbsp;&lt;/font&gt;" style="text;html=1;strokeColor=none;fillColor=none;align=center;verticalAlign=middle;whiteSpace=wrap;rounded=0;" parent="1" vertex="1">
          <mxGeometry x="412" y="212" width="60" height="30" as="geometry" />
        </mxCell>
        <mxCell id="Jk2P23yGDFoTC9rtima0-46" style="edgeStyle=orthogonalEdgeStyle;rounded=0;orthogonalLoop=1;jettySize=auto;html=1;fillColor=#f0a30a;strokeColor=#BD7000;strokeWidth=2;" parent="1" source="Jk2P23yGDFoTC9rtima0-23" edge="1">
          <mxGeometry relative="1" as="geometry">
            <mxPoint x="585" y="516.5" as="targetPoint" />
            <Array as="points">
              <mxPoint x="569" y="697.5" />
              <mxPoint x="569" y="516.5" />
            </Array>
          </mxGeometry>
        </mxCell>
        <mxCell id="Jk2P23yGDFoTC9rtima0-50" style="edgeStyle=orthogonalEdgeStyle;rounded=0;orthogonalLoop=1;jettySize=auto;html=1;fillColor=#f0a30a;strokeColor=#BD7000;strokeWidth=2;endArrow=none;endFill=0;exitX=0.92;exitY=0.5;exitDx=0;exitDy=0;exitPerimeter=0;" parent="1" source="Jk2P23yGDFoTC9rtima0-33" target="Jk2P23yGDFoTC9rtima0-41" edge="1">
          <mxGeometry relative="1" as="geometry">
            <mxPoint x="294" y="717.506711409396" as="sourcePoint" />
            <mxPoint x="585" y="516.5" as="targetPoint" />
            <Array as="points">
              <mxPoint x="569" y="887" />
              <mxPoint x="569" y="516" />
              <mxPoint x="617" y="516" />
            </Array>
          </mxGeometry>
        </mxCell>
        <mxCell id="Jk2P23yGDFoTC9rtima0-51" value="&lt;font style=&quot;font-size: 14px;&quot;&gt;Internet&lt;/font&gt;" style="text;html=1;strokeColor=none;fillColor=none;align=center;verticalAlign=middle;whiteSpace=wrap;rounded=0;" parent="1" vertex="1">
          <mxGeometry x="621" y="223.75" width="60" height="30" as="geometry" />
        </mxCell>
        <mxCell id="Jk2P23yGDFoTC9rtima0-63" style="edgeStyle=orthogonalEdgeStyle;rounded=0;orthogonalLoop=1;jettySize=auto;html=1;fillColor=#d80073;strokeColor=#A50040;strokeWidth=2;" parent="1" source="Jk2P23yGDFoTC9rtima0-59" edge="1">
          <mxGeometry relative="1" as="geometry">
            <mxPoint x="160.47128401131476" y="472.49427953259703" as="targetPoint" />
          </mxGeometry>
        </mxCell>
        <mxCell id="Jk2P23yGDFoTC9rtima0-59" value="" style="sketch=0;aspect=fixed;pointerEvents=1;shadow=0;dashed=0;html=1;strokeColor=#006EAF;labelPosition=center;verticalLabelPosition=bottom;verticalAlign=top;align=center;fillColor=#1ba1e2;shape=mxgraph.mscae.enterprise.d;fontColor=#ffffff;" parent="1" vertex="1">
          <mxGeometry x="149" y="378.25" width="46" height="57.5" as="geometry" />
        </mxCell>
        <mxCell id="Jk2P23yGDFoTC9rtima0-64" value="WAF" style="text;html=1;strokeColor=none;fillColor=none;align=center;verticalAlign=middle;whiteSpace=wrap;rounded=0;" parent="1" vertex="1">
          <mxGeometry x="136.5" y="354" width="60" height="30" as="geometry" />
        </mxCell>
        <mxCell id="Jk2P23yGDFoTC9rtima0-65" style="edgeStyle=orthogonalEdgeStyle;rounded=0;orthogonalLoop=1;jettySize=auto;html=1;strokeWidth=2;fillColor=#d80073;strokeColor=#A50040;" parent="1" edge="1">
          <mxGeometry relative="1" as="geometry">
            <mxPoint x="857" y="567" as="sourcePoint" />
            <mxPoint x="746" y="567" as="targetPoint" />
          </mxGeometry>
        </mxCell>
        <mxCell id="Jk2P23yGDFoTC9rtima0-67" style="edgeStyle=orthogonalEdgeStyle;rounded=0;orthogonalLoop=1;jettySize=auto;html=1;strokeWidth=2;fillColor=#e3c800;strokeColor=#B09500;endArrow=none;endFill=0;startArrow=classic;startFill=1;" parent="1" edge="1">
          <mxGeometry relative="1" as="geometry">
            <mxPoint x="859" y="617" as="sourcePoint" />
            <mxPoint x="748" y="617" as="targetPoint" />
          </mxGeometry>
        </mxCell>
        <mxCell id="Jk2P23yGDFoTC9rtima0-69" value="Incoming" style="text;html=1;strokeColor=none;fillColor=none;align=center;verticalAlign=middle;whiteSpace=wrap;rounded=0;" parent="1" vertex="1">
          <mxGeometry x="768" y="537" width="60" height="30" as="geometry" />
        </mxCell>
        <mxCell id="Jk2P23yGDFoTC9rtima0-70" value="Outgoing" style="text;html=1;strokeColor=none;fillColor=none;align=center;verticalAlign=middle;whiteSpace=wrap;rounded=0;" parent="1" vertex="1">
          <mxGeometry x="772" y="583" width="60" height="30" as="geometry" />
        </mxCell>
        <mxCell id="Jk2P23yGDFoTC9rtima0-76" style="edgeStyle=orthogonalEdgeStyle;rounded=0;orthogonalLoop=1;jettySize=auto;html=1;entryX=0.486;entryY=-0.037;entryDx=0;entryDy=0;entryPerimeter=0;fillColor=#a20025;strokeColor=#6F0000;" parent="1" source="Jk2P23yGDFoTC9rtima0-71" target="Jk2P23yGDFoTC9rtima0-72" edge="1">
          <mxGeometry relative="1" as="geometry" />
        </mxCell>
        <mxCell id="Jk2P23yGDFoTC9rtima0-71" value="" style="sketch=0;outlineConnect=0;fontColor=#ffffff;fillColor=#1ba1e2;strokeColor=#006EAF;dashed=0;verticalLabelPosition=bottom;verticalAlign=top;align=center;html=1;fontSize=12;fontStyle=0;aspect=fixed;pointerEvents=1;shape=mxgraph.aws4.traditional_server;" parent="1" vertex="1">
          <mxGeometry x="140.38" y="473" width="39.23" height="68" as="geometry" />
        </mxCell>
        <mxCell id="Jk2P23yGDFoTC9rtima0-78" style="edgeStyle=orthogonalEdgeStyle;rounded=0;orthogonalLoop=1;jettySize=auto;html=1;fillColor=#a20025;strokeColor=#6F0000;" parent="1" source="Jk2P23yGDFoTC9rtima0-72" edge="1">
          <mxGeometry relative="1" as="geometry">
            <mxPoint x="160" y="639.3333623976935" as="targetPoint" />
          </mxGeometry>
        </mxCell>
        <mxCell id="Jk2P23yGDFoTC9rtima0-72" value="" style="verticalLabelPosition=bottom;sketch=0;html=1;fillColor=#1ba1e2;strokeColor=#006EAF;verticalAlign=top;pointerEvents=1;align=center;shape=mxgraph.cisco_safe.security_icons.firewall;fontColor=#ffffff;" parent="1" vertex="1">
          <mxGeometry x="125" y="570.25" width="70" height="40.75" as="geometry" />
        </mxCell>
        <mxCell id="Jk2P23yGDFoTC9rtima0-73" value="" style="sketch=0;outlineConnect=0;fontColor=#ffffff;fillColor=#1ba1e2;strokeColor=#006EAF;dashed=0;verticalLabelPosition=bottom;verticalAlign=top;align=center;html=1;fontSize=12;fontStyle=0;aspect=fixed;pointerEvents=1;shape=mxgraph.aws4.generic_firewall;" parent="1" vertex="1">
          <mxGeometry x="78" y="565" width="54.36" height="46" as="geometry" />
        </mxCell>
        <mxCell id="Jk2P23yGDFoTC9rtima0-74" value="&lt;font style=&quot;font-size: 14px;&quot;&gt;Firewall&lt;/font&gt;" style="text;html=1;strokeColor=none;fillColor=none;align=center;verticalAlign=middle;whiteSpace=wrap;rounded=0;" parent="1" vertex="1">
          <mxGeometry x="78" y="541" width="60" height="30" as="geometry" />
        </mxCell>
        <mxCell id="Jk2P23yGDFoTC9rtima0-79" value="&lt;font style=&quot;font-size: 14px;&quot;&gt;Web Server&lt;/font&gt;" style="text;html=1;strokeColor=none;fillColor=none;align=center;verticalAlign=middle;whiteSpace=wrap;rounded=0;" parent="1" vertex="1">
          <mxGeometry x="189" y="487" width="91" height="30" as="geometry" />
        </mxCell>
        <mxCell id="Jk2P23yGDFoTC9rtima0-80" value="&lt;font style=&quot;font-size: 14px;&quot;&gt;Application Server&lt;/font&gt;" style="text;html=1;strokeColor=none;fillColor=none;align=center;verticalAlign=middle;whiteSpace=wrap;rounded=0;" parent="1" vertex="1">
          <mxGeometry x="169.5" y="643" width="130" height="30" as="geometry" />
        </mxCell>
        <mxCell id="Jk2P23yGDFoTC9rtima0-23" value="" style="sketch=0;outlineConnect=0;fontColor=#ffffff;fillColor=#1ba1e2;strokeColor=#006EAF;dashed=0;verticalLabelPosition=bottom;verticalAlign=top;align=center;html=1;fontSize=12;fontStyle=0;aspect=fixed;pointerEvents=1;shape=mxgraph.aws4.traditional_server;container=0;" parent="1" vertex="1">
          <mxGeometry x="205" y="673" width="45" height="78" as="geometry" />
        </mxCell>
        <mxCell id="Jk2P23yGDFoTC9rtima0-24" value="" style="sketch=0;outlineConnect=0;fontColor=#ffffff;fillColor=#1ba1e2;strokeColor=#006EAF;dashed=0;verticalLabelPosition=bottom;verticalAlign=top;align=center;html=1;fontSize=12;fontStyle=0;aspect=fixed;pointerEvents=1;shape=mxgraph.aws4.traditional_server;" parent="1" vertex="1">
          <mxGeometry x="95.38" y="676" width="45" height="78" as="geometry" />
        </mxCell>
        <mxCell id="Jk2P23yGDFoTC9rtima0-27" value="" style="line;strokeWidth=1;rotatable=0;dashed=0;labelPosition=right;align=left;verticalAlign=middle;spacingTop=0;spacingLeft=6;points=[];portConstraint=eastwest;" parent="1" vertex="1">
          <mxGeometry x="32" y="626" width="240" height="38" as="geometry" />
        </mxCell>
        <mxCell id="Jk2P23yGDFoTC9rtima0-82" value="&lt;font style=&quot;font-size: 14px;&quot;&gt;Database Server&lt;/font&gt;" style="text;html=1;strokeColor=none;fillColor=none;align=center;verticalAlign=middle;whiteSpace=wrap;rounded=0;" parent="1" vertex="1">
          <mxGeometry x="47" y="646" width="130" height="30" as="geometry" />
        </mxCell>
        <mxCell id="Jk2P23yGDFoTC9rtima0-83" value="" style="endArrow=none;dashed=1;html=1;dashPattern=1 3;strokeWidth=2;rounded=0;" parent="1" edge="1">
          <mxGeometry width="50" height="50" relative="1" as="geometry">
            <mxPoint x="354" y="605" as="sourcePoint" />
            <mxPoint x="354" y="383" as="targetPoint" />
          </mxGeometry>
        </mxCell>
        <mxCell id="Jk2P23yGDFoTC9rtima0-84" value="DMZ" style="text;html=1;strokeColor=none;fillColor=none;align=center;verticalAlign=middle;whiteSpace=wrap;rounded=0;" parent="1" vertex="1">
          <mxGeometry x="366" y="477" width="60" height="30" as="geometry" />
        </mxCell>
        <mxCell id="Jk2P23yGDFoTC9rtima0-85" value="" style="verticalLabelPosition=bottom;sketch=0;html=1;fillColor=#1ba1e2;strokeColor=#006EAF;verticalAlign=top;pointerEvents=1;align=center;shape=mxgraph.cisco_safe.security_icons.firewall;fontColor=#ffffff;" parent="1" vertex="1">
          <mxGeometry x="-330" y="800.25" width="70" height="40.75" as="geometry" />
        </mxCell>
        <mxCell id="Jk2P23yGDFoTC9rtima0-86" value="" style="sketch=0;outlineConnect=0;fontColor=#ffffff;fillColor=#1ba1e2;strokeColor=#006EAF;dashed=0;verticalLabelPosition=bottom;verticalAlign=top;align=center;html=1;fontSize=12;fontStyle=0;aspect=fixed;pointerEvents=1;shape=mxgraph.aws4.generic_firewall;" parent="1" vertex="1">
          <mxGeometry x="-377" y="795" width="54.36" height="46" as="geometry" />
        </mxCell>
        <mxCell id="Jk2P23yGDFoTC9rtima0-87" value="&lt;font style=&quot;font-size: 14px;&quot;&gt;Firewall&lt;/font&gt;" style="text;html=1;strokeColor=none;fillColor=none;align=center;verticalAlign=middle;whiteSpace=wrap;rounded=0;" parent="1" vertex="1">
          <mxGeometry x="-330.5" y="765" width="60" height="30" as="geometry" />
        </mxCell>
        <mxCell id="Jk2P23yGDFoTC9rtima0-90" value="" style="sketch=0;pointerEvents=1;shadow=0;dashed=0;html=1;strokeColor=#006EAF;fillColor=#1ba1e2;labelPosition=center;verticalLabelPosition=bottom;verticalAlign=top;outlineConnect=0;align=center;shape=mxgraph.office.devices.ip_gateway;fontColor=#ffffff;" parent="1" vertex="1">
          <mxGeometry x="-319" y="526" width="109" height="60" as="geometry" />
        </mxCell>
        <mxCell id="Jk2P23yGDFoTC9rtima0-93" value="NDR" style="text;html=1;strokeColor=none;fillColor=none;align=center;verticalAlign=middle;whiteSpace=wrap;rounded=0;" parent="1" vertex="1">
          <mxGeometry x="-299.5" y="492" width="60" height="30" as="geometry" />
        </mxCell>
        <mxCell id="44LDf_YccPJd9R2KTV7_-1" value="" style="sketch=0;outlineConnect=0;fontColor=#ffffff;fillColor=#1ba1e2;strokeColor=#006EAF;dashed=0;verticalLabelPosition=bottom;verticalAlign=top;align=center;html=1;fontSize=12;fontStyle=0;aspect=fixed;pointerEvents=1;shape=mxgraph.aws4.aws_backup_support_for_amazon_fsx_for_netapp_ontap;" parent="1" vertex="1">
          <mxGeometry x="-34" y="439" width="78" height="64" as="geometry" />
        </mxCell>
        <mxCell id="44LDf_YccPJd9R2KTV7_-4" style="edgeStyle=orthogonalEdgeStyle;rounded=0;orthogonalLoop=1;jettySize=auto;html=1;entryX=0.5;entryY=0;entryDx=0;entryDy=0;entryPerimeter=0;" parent="1" source="44LDf_YccPJd9R2KTV7_-3" target="Jk2P23yGDFoTC9rtima0-14" edge="1">
          <mxGeometry relative="1" as="geometry" />
        </mxCell>
        <mxCell id="44LDf_YccPJd9R2KTV7_-3" value="" style="html=1;strokeWidth=1;shadow=0;dashed=0;shape=mxgraph.ios7.misc.vpn;fillColor=#007AFF;strokeColor=none;buttonText=;strokeColor2=#222222;fontColor=#222222;fontSize=8;verticalLabelPosition=bottom;verticalAlign=top;align=center;sketch=0;" parent="1" vertex="1">
          <mxGeometry x="519" y="253.75" width="47" height="40" as="geometry" />
        </mxCell>
        <mxCell id="44LDf_YccPJd9R2KTV7_-6" style="edgeStyle=orthogonalEdgeStyle;rounded=0;orthogonalLoop=1;jettySize=auto;html=1;entryX=1.044;entryY=0.618;entryDx=0;entryDy=0;entryPerimeter=0;" parent="1" edge="1">
          <mxGeometry relative="1" as="geometry">
            <mxPoint x="844" y="119.09090909090901" as="sourcePoint" />
            <mxPoint x="568.0679999999998" y="269.47" as="targetPoint" />
            <Array as="points">
              <mxPoint x="799" y="119" />
              <mxPoint x="799" y="284" />
              <mxPoint x="568" y="284" />
            </Array>
          </mxGeometry>
        </mxCell>
        <mxCell id="44LDf_YccPJd9R2KTV7_-5" value="" style="points=[[0.35,0,0],[0.98,0.51,0],[1,0.71,0],[0.67,1,0],[0,0.795,0],[0,0.65,0]];verticalLabelPosition=bottom;sketch=0;html=1;verticalAlign=top;aspect=fixed;align=center;pointerEvents=1;shape=mxgraph.cisco19.user;fillColor=#005073;strokeColor=none;" parent="1" vertex="1">
          <mxGeometry x="844" y="89" width="78" height="78" as="geometry" />
        </mxCell>
        <mxCell id="44LDf_YccPJd9R2KTV7_-7" value="Users" style="text;html=1;strokeColor=none;fillColor=none;align=center;verticalAlign=middle;whiteSpace=wrap;rounded=0;" parent="1" vertex="1">
          <mxGeometry x="848" y="203" width="60" height="30" as="geometry" />
        </mxCell>
        <mxCell id="44LDf_YccPJd9R2KTV7_-8" value="Honeynet" style="text;html=1;strokeColor=none;fillColor=none;align=center;verticalAlign=middle;whiteSpace=wrap;rounded=0;" parent="1" vertex="1">
          <mxGeometry x="-28" y="511" width="60" height="30" as="geometry" />
        </mxCell>
        <mxCell id="44LDf_YccPJd9R2KTV7_-9" value="" style="sketch=0;outlineConnect=0;fontColor=#ffffff;fillColor=#1ba1e2;strokeColor=#006EAF;dashed=0;verticalLabelPosition=bottom;verticalAlign=top;align=center;html=1;fontSize=12;fontStyle=0;aspect=fixed;shape=mxgraph.aws4.application_discovery_service_aws_agentless_collector;" parent="1" vertex="1">
          <mxGeometry x="-204" y="930" width="44" height="44" as="geometry" />
        </mxCell>
        <mxCell id="44LDf_YccPJd9R2KTV7_-11" style="edgeStyle=orthogonalEdgeStyle;rounded=0;orthogonalLoop=1;jettySize=auto;html=1;entryX=1;entryY=0.75;entryDx=0;entryDy=0;entryPerimeter=0;" parent="1" source="44LDf_YccPJd9R2KTV7_-9" target="Jk2P23yGDFoTC9rtima0-14" edge="1">
          <mxGeometry relative="1" as="geometry">
            <Array as="points">
              <mxPoint x="-25" y="952" />
              <mxPoint x="-25" y="743" />
              <mxPoint x="54" y="743" />
              <mxPoint x="54" y="492" />
              <mxPoint x="78" y="492" />
              <mxPoint x="78" y="353" />
              <mxPoint x="40" y="353" />
            </Array>
          </mxGeometry>
        </mxCell>
        <mxCell id="44LDf_YccPJd9R2KTV7_-12" value="" style="sketch=0;outlineConnect=0;fontColor=#ffffff;fillColor=#1ba1e2;strokeColor=#006EAF;dashed=0;verticalLabelPosition=bottom;verticalAlign=top;align=center;html=1;fontSize=12;fontStyle=0;aspect=fixed;shape=mxgraph.aws4.application_discovery_service_aws_agentless_collector;" parent="1" vertex="1">
          <mxGeometry x="37" y="731" width="43" height="43" as="geometry" />
        </mxCell>
        <mxCell id="44LDf_YccPJd9R2KTV7_-10" value="" style="sketch=0;outlineConnect=0;fontColor=#ffffff;fillColor=#1ba1e2;strokeColor=#006EAF;dashed=0;verticalLabelPosition=bottom;verticalAlign=top;align=center;html=1;fontSize=12;fontStyle=0;aspect=fixed;shape=mxgraph.aws4.application_discovery_service_aws_agentless_collector;" parent="1" vertex="1">
          <mxGeometry x="60" y="474" width="43" height="43" as="geometry" />
        </mxCell>
        <mxCell id="44LDf_YccPJd9R2KTV7_-13" value="Decoy" style="text;html=1;strokeColor=none;fillColor=none;align=center;verticalAlign=middle;whiteSpace=wrap;rounded=0;" parent="1" vertex="1">
          <mxGeometry x="-9" y="700" width="60" height="30" as="geometry" />
        </mxCell>
        <mxCell id="44LDf_YccPJd9R2KTV7_-14" value="Decoy" style="text;html=1;strokeColor=none;fillColor=none;align=center;verticalAlign=middle;whiteSpace=wrap;rounded=0;" parent="1" vertex="1">
          <mxGeometry x="-162" y="916" width="60" height="30" as="geometry" />
        </mxCell>
        <mxCell id="44LDf_YccPJd9R2KTV7_-15" value="Decoy" style="text;html=1;strokeColor=none;fillColor=none;align=center;verticalAlign=middle;whiteSpace=wrap;rounded=0;" parent="1" vertex="1">
          <mxGeometry x="69" y="444" width="60" height="30" as="geometry" />
        </mxCell>
      </root>
    </mxGraphModel>
  </diagram>
  <diagram id="_TaP6DIIzNJenNdX5lho" name="Monolithic Architecture">
    <mxGraphModel dx="2867" dy="2362" grid="1" gridSize="10" guides="1" tooltips="1" connect="1" arrows="1" fold="1" page="1" pageScale="1" pageWidth="850" pageHeight="1100" math="0" shadow="0">
      <root>
        <mxCell id="0" />
        <mxCell id="1" parent="0" />
        <mxCell id="FAg_N-xm-3JlPHzYuXiQ-92" value="s" style="rounded=0;whiteSpace=wrap;html=1;" vertex="1" parent="1">
          <mxGeometry x="510" y="-740" width="2140" height="1770" as="geometry" />
        </mxCell>
        <mxCell id="FAg_N-xm-3JlPHzYuXiQ-183" value="" style="rounded=0;whiteSpace=wrap;html=1;" vertex="1" parent="1">
          <mxGeometry x="590" y="-40" width="1070" height="1020" as="geometry" />
        </mxCell>
        <mxCell id="FAg_N-xm-3JlPHzYuXiQ-1" value="" style="rounded=0;whiteSpace=wrap;html=1;" vertex="1" parent="1">
          <mxGeometry x="680" y="40" width="510" height="350" as="geometry" />
        </mxCell>
        <mxCell id="FAg_N-xm-3JlPHzYuXiQ-2" value="&lt;h1&gt;OS&lt;/h1&gt;&lt;p&gt;Windows, Linux, Mac, AIX, As400&lt;/p&gt;" style="text;html=1;strokeColor=none;fillColor=none;spacing=5;spacingTop=-20;whiteSpace=wrap;overflow=hidden;rounded=0;" vertex="1" parent="1">
          <mxGeometry x="2760" y="-215" width="220" height="90" as="geometry" />
        </mxCell>
        <mxCell id="FAg_N-xm-3JlPHzYuXiQ-3" value="&lt;font style=&quot;font-size: 14px;&quot;&gt;Server: 10.10.10.10&lt;/font&gt;" style="text;html=1;strokeColor=none;fillColor=none;align=center;verticalAlign=middle;whiteSpace=wrap;rounded=0;" vertex="1" parent="1">
          <mxGeometry x="905" y="420" width="135" height="20" as="geometry" />
        </mxCell>
        <mxCell id="FAg_N-xm-3JlPHzYuXiQ-4" value="&lt;font style=&quot;font-size: 18px;&quot;&gt;os&lt;/font&gt;" style="rounded=0;whiteSpace=wrap;html=1;" vertex="1" parent="1">
          <mxGeometry x="680" y="270" width="300" height="120" as="geometry" />
        </mxCell>
        <mxCell id="FAg_N-xm-3JlPHzYuXiQ-5" value="HTTP&amp;nbsp;" style="rounded=0;whiteSpace=wrap;html=1;" vertex="1" parent="1">
          <mxGeometry x="740" y="80" width="120" height="180" as="geometry" />
        </mxCell>
        <mxCell id="FAg_N-xm-3JlPHzYuXiQ-6" value="&lt;h1&gt;Servers&lt;/h1&gt;&lt;p&gt;&lt;font style=&quot;font-size: 18px;&quot;&gt;1- HTTP Server.(80) = IIS, Apache, Ngnix,...&lt;/font&gt;&lt;/p&gt;&lt;p&gt;&lt;font style=&quot;font-size: 18px;&quot;&gt;2- SMTP Server(25) = Exchange,......&lt;/font&gt;&lt;/p&gt;&lt;p&gt;&lt;font style=&quot;font-size: 18px;&quot;&gt;3- FTP Server (21)= IIS, Filezilla..&lt;/font&gt;&lt;/p&gt;&lt;p&gt;&lt;span style=&quot;font-size: 18px;&quot;&gt;4- Database Server (1433)= SQL Server , Oracle,Mongo, Postgress, My SQL&lt;/span&gt;&lt;/p&gt;&lt;p&gt;&lt;span style=&quot;font-size: 18px;&quot;&gt;5 SFTP&lt;/span&gt;&lt;/p&gt;" style="text;html=1;strokeColor=none;fillColor=none;spacing=5;spacingTop=-20;whiteSpace=wrap;overflow=hidden;rounded=0;" vertex="1" parent="1">
          <mxGeometry x="2770" y="-45" width="650" height="340" as="geometry" />
        </mxCell>
        <mxCell id="FAg_N-xm-3JlPHzYuXiQ-7" value="Firewall" style="rounded=0;whiteSpace=wrap;html=1;" vertex="1" parent="1">
          <mxGeometry x="1080" y="60" width="90" height="320" as="geometry" />
        </mxCell>
        <mxCell id="FAg_N-xm-3JlPHzYuXiQ-8" value="80" style="rounded=0;whiteSpace=wrap;html=1;" vertex="1" parent="1">
          <mxGeometry x="830" y="110" width="300" height="40" as="geometry" />
        </mxCell>
        <mxCell id="FAg_N-xm-3JlPHzYuXiQ-9" value="80" style="rounded=0;whiteSpace=wrap;html=1;" vertex="1" parent="1">
          <mxGeometry x="1140" y="110" width="80" height="40" as="geometry" />
        </mxCell>
        <mxCell id="FAg_N-xm-3JlPHzYuXiQ-10" value="" style="endArrow=classic;html=1;rounded=0;fillColor=#d5e8d4;strokeColor=#82b366;strokeWidth=6;" edge="1" parent="1">
          <mxGeometry width="50" height="50" relative="1" as="geometry">
            <mxPoint x="1390" y="130" as="sourcePoint" />
            <mxPoint x="1240" y="130" as="targetPoint" />
          </mxGeometry>
        </mxCell>
        <mxCell id="FAg_N-xm-3JlPHzYuXiQ-13" value="" style="endArrow=classic;html=1;rounded=0;fillColor=#f8cecc;strokeColor=#b85450;strokeWidth=6;" edge="1" parent="1">
          <mxGeometry width="50" height="50" relative="1" as="geometry">
            <mxPoint x="1240" y="150" as="sourcePoint" />
            <mxPoint x="1380" y="150" as="targetPoint" />
          </mxGeometry>
        </mxCell>
        <mxCell id="FAg_N-xm-3JlPHzYuXiQ-14" value="Allowed" style="text;html=1;strokeColor=none;fillColor=none;align=center;verticalAlign=middle;whiteSpace=wrap;rounded=0;" vertex="1" parent="1">
          <mxGeometry x="1280" y="90" width="60" height="30" as="geometry" />
        </mxCell>
        <mxCell id="FAg_N-xm-3JlPHzYuXiQ-15" value="Not Allowed" style="text;html=1;strokeColor=none;fillColor=none;align=center;verticalAlign=middle;whiteSpace=wrap;rounded=0;" vertex="1" parent="1">
          <mxGeometry x="1230" y="160" width="140" height="30" as="geometry" />
        </mxCell>
        <mxCell id="FAg_N-xm-3JlPHzYuXiQ-17" value="Remote Controls" style="rounded=0;whiteSpace=wrap;html=1;" vertex="1" parent="1">
          <mxGeometry x="920" y="340" width="190" height="30" as="geometry" />
        </mxCell>
        <mxCell id="FAg_N-xm-3JlPHzYuXiQ-59" style="edgeStyle=orthogonalEdgeStyle;rounded=0;orthogonalLoop=1;jettySize=auto;html=1;" edge="1" parent="1" source="FAg_N-xm-3JlPHzYuXiQ-19" target="FAg_N-xm-3JlPHzYuXiQ-58">
          <mxGeometry relative="1" as="geometry" />
        </mxCell>
        <mxCell id="FAg_N-xm-3JlPHzYuXiQ-19" value="Actor" style="shape=umlActor;verticalLabelPosition=bottom;verticalAlign=top;html=1;outlineConnect=0;" vertex="1" parent="1">
          <mxGeometry x="3890" y="-595.5" width="130" height="210" as="geometry" />
        </mxCell>
        <mxCell id="FAg_N-xm-3JlPHzYuXiQ-20" value="Remote Controls" style="rounded=0;whiteSpace=wrap;html=1;" vertex="1" parent="1">
          <mxGeometry x="920" y="290" width="120" height="30" as="geometry" />
        </mxCell>
        <mxCell id="FAg_N-xm-3JlPHzYuXiQ-21" value="22, 3389" style="rounded=0;whiteSpace=wrap;html=1;" vertex="1" parent="1">
          <mxGeometry x="1130" y="335" width="90" height="40" as="geometry" />
        </mxCell>
        <mxCell id="FAg_N-xm-3JlPHzYuXiQ-22" value="137,139,445." style="rounded=0;whiteSpace=wrap;html=1;" vertex="1" parent="1">
          <mxGeometry x="1050" y="287.5" width="90" height="35" as="geometry" />
        </mxCell>
        <mxCell id="FAg_N-xm-3JlPHzYuXiQ-23" value="" style="shape=mxgraph.mockup.markup.redX;fillColor=#ff0000;html=1;shadow=0;whiteSpace=wrap;strokeColor=none;rotation=-165;" vertex="1" parent="1">
          <mxGeometry x="1153.8" y="286" width="42.41" height="34" as="geometry" />
        </mxCell>
        <mxCell id="FAg_N-xm-3JlPHzYuXiQ-24" value="" style="endArrow=classic;html=1;rounded=0;fillColor=#d5e8d4;strokeColor=#82b366;strokeWidth=6;" edge="1" parent="1">
          <mxGeometry width="50" height="50" relative="1" as="geometry">
            <mxPoint x="1390" y="354.5" as="sourcePoint" />
            <mxPoint x="1240" y="354.5" as="targetPoint" />
          </mxGeometry>
        </mxCell>
        <mxCell id="FAg_N-xm-3JlPHzYuXiQ-25" value="8080,8443,443,...." style="rounded=0;whiteSpace=wrap;html=1;" vertex="1" parent="1">
          <mxGeometry x="830" y="155" width="300" height="40" as="geometry" />
        </mxCell>
        <mxCell id="FAg_N-xm-3JlPHzYuXiQ-27" value="&lt;h1&gt;&lt;font style=&quot;font-size: 18px;&quot;&gt;Ports&lt;/font&gt;&lt;/h1&gt;&lt;p&gt;&lt;font size=&quot;3&quot;&gt;0-1024 = Well Known Ports&lt;/font&gt;&lt;/p&gt;&lt;p&gt;&lt;font size=&quot;3&quot;&gt;1024-49151= Resisted ???&lt;/font&gt;&lt;/p&gt;&lt;p&gt;&lt;font size=&quot;3&quot;&gt;&amp;nbsp;49152-65535 = Dynamic/ Private/ ephemeral&amp;nbsp;&lt;/font&gt;&lt;/p&gt;" style="text;html=1;strokeColor=none;fillColor=none;spacing=5;spacingTop=-20;whiteSpace=wrap;overflow=hidden;rounded=0;" vertex="1" parent="1">
          <mxGeometry x="2780" y="285" width="349" height="140" as="geometry" />
        </mxCell>
        <mxCell id="FAg_N-xm-3JlPHzYuXiQ-30" value="" style="rounded=0;whiteSpace=wrap;html=1;" vertex="1" parent="1">
          <mxGeometry x="630" y="560" width="510" height="350" as="geometry" />
        </mxCell>
        <mxCell id="FAg_N-xm-3JlPHzYuXiQ-31" value="&lt;font style=&quot;font-size: 14px;&quot;&gt;Server: 10.10.10.20&lt;/font&gt;" style="text;html=1;strokeColor=none;fillColor=none;align=center;verticalAlign=middle;whiteSpace=wrap;rounded=0;" vertex="1" parent="1">
          <mxGeometry x="855" y="940" width="135" height="20" as="geometry" />
        </mxCell>
        <mxCell id="FAg_N-xm-3JlPHzYuXiQ-32" value="&lt;font style=&quot;font-size: 18px;&quot;&gt;os&lt;/font&gt;" style="rounded=0;whiteSpace=wrap;html=1;" vertex="1" parent="1">
          <mxGeometry x="630" y="790" width="300" height="120" as="geometry" />
        </mxCell>
        <mxCell id="FAg_N-xm-3JlPHzYuXiQ-33" value="Database&amp;nbsp;&lt;br&gt;ODBC" style="rounded=0;whiteSpace=wrap;html=1;" vertex="1" parent="1">
          <mxGeometry x="690" y="600" width="120" height="180" as="geometry" />
        </mxCell>
        <mxCell id="FAg_N-xm-3JlPHzYuXiQ-34" value="Firewall" style="rounded=0;whiteSpace=wrap;html=1;" vertex="1" parent="1">
          <mxGeometry x="1030" y="580" width="90" height="320" as="geometry" />
        </mxCell>
        <mxCell id="FAg_N-xm-3JlPHzYuXiQ-35" value="1433" style="rounded=0;whiteSpace=wrap;html=1;" vertex="1" parent="1">
          <mxGeometry x="780" y="630" width="300" height="40" as="geometry" />
        </mxCell>
        <mxCell id="FAg_N-xm-3JlPHzYuXiQ-36" value="1433" style="rounded=0;whiteSpace=wrap;html=1;" vertex="1" parent="1">
          <mxGeometry x="1090" y="630" width="80" height="40" as="geometry" />
        </mxCell>
        <mxCell id="FAg_N-xm-3JlPHzYuXiQ-37" value="" style="endArrow=classic;html=1;rounded=0;fillColor=#d5e8d4;strokeColor=#82b366;strokeWidth=6;" edge="1" parent="1">
          <mxGeometry width="50" height="50" relative="1" as="geometry">
            <mxPoint x="1340" y="650" as="sourcePoint" />
            <mxPoint x="1190" y="650" as="targetPoint" />
          </mxGeometry>
        </mxCell>
        <mxCell id="FAg_N-xm-3JlPHzYuXiQ-38" value="" style="endArrow=classic;html=1;rounded=0;fillColor=#f8cecc;strokeColor=#b85450;strokeWidth=6;" edge="1" parent="1">
          <mxGeometry width="50" height="50" relative="1" as="geometry">
            <mxPoint x="1190" y="670" as="sourcePoint" />
            <mxPoint x="1330" y="670" as="targetPoint" />
          </mxGeometry>
        </mxCell>
        <mxCell id="FAg_N-xm-3JlPHzYuXiQ-39" value="Allowed" style="text;html=1;strokeColor=none;fillColor=none;align=center;verticalAlign=middle;whiteSpace=wrap;rounded=0;" vertex="1" parent="1">
          <mxGeometry x="1230" y="610" width="60" height="30" as="geometry" />
        </mxCell>
        <mxCell id="FAg_N-xm-3JlPHzYuXiQ-40" value="Not Allowed" style="text;html=1;strokeColor=none;fillColor=none;align=center;verticalAlign=middle;whiteSpace=wrap;rounded=0;" vertex="1" parent="1">
          <mxGeometry x="1180" y="680" width="140" height="30" as="geometry" />
        </mxCell>
        <mxCell id="FAg_N-xm-3JlPHzYuXiQ-42" value="Remote Controls" style="rounded=0;whiteSpace=wrap;html=1;" vertex="1" parent="1">
          <mxGeometry x="870" y="860" width="190" height="30" as="geometry" />
        </mxCell>
        <mxCell id="FAg_N-xm-3JlPHzYuXiQ-43" value="Remote Controls" style="rounded=0;whiteSpace=wrap;html=1;" vertex="1" parent="1">
          <mxGeometry x="870" y="810" width="120" height="30" as="geometry" />
        </mxCell>
        <mxCell id="FAg_N-xm-3JlPHzYuXiQ-44" value="22, 3389" style="rounded=0;whiteSpace=wrap;html=1;" vertex="1" parent="1">
          <mxGeometry x="1080" y="855" width="90" height="40" as="geometry" />
        </mxCell>
        <mxCell id="FAg_N-xm-3JlPHzYuXiQ-45" value="137,139,445." style="rounded=0;whiteSpace=wrap;html=1;" vertex="1" parent="1">
          <mxGeometry x="1000" y="807.5" width="90" height="35" as="geometry" />
        </mxCell>
        <mxCell id="FAg_N-xm-3JlPHzYuXiQ-46" value="" style="shape=mxgraph.mockup.markup.redX;fillColor=#ff0000;html=1;shadow=0;whiteSpace=wrap;strokeColor=none;rotation=-165;" vertex="1" parent="1">
          <mxGeometry x="1103.8" y="806" width="42.41" height="34" as="geometry" />
        </mxCell>
        <mxCell id="FAg_N-xm-3JlPHzYuXiQ-47" value="" style="endArrow=classic;html=1;rounded=0;fillColor=#d5e8d4;strokeColor=#82b366;strokeWidth=6;" edge="1" parent="1">
          <mxGeometry width="50" height="50" relative="1" as="geometry">
            <mxPoint x="1340" y="874.5" as="sourcePoint" />
            <mxPoint x="1190" y="874.5" as="targetPoint" />
          </mxGeometry>
        </mxCell>
        <mxCell id="FAg_N-xm-3JlPHzYuXiQ-49" value="" style="endArrow=classic;html=1;rounded=0;exitX=0.5;exitY=1;exitDx=0;exitDy=0;entryX=1;entryY=0.5;entryDx=0;entryDy=0;" edge="1" parent="1" source="FAg_N-xm-3JlPHzYuXiQ-51" target="FAg_N-xm-3JlPHzYuXiQ-36">
          <mxGeometry width="50" height="50" relative="1" as="geometry">
            <mxPoint x="880" y="330" as="sourcePoint" />
            <mxPoint x="1270" y="570" as="targetPoint" />
            <Array as="points">
              <mxPoint x="795" y="440" />
              <mxPoint x="1370" y="440" />
              <mxPoint x="1370" y="650" />
            </Array>
          </mxGeometry>
        </mxCell>
        <mxCell id="FAg_N-xm-3JlPHzYuXiQ-53" value="IPs + Port + Username and Password" style="edgeLabel;html=1;align=center;verticalAlign=middle;resizable=0;points=[];" vertex="1" connectable="0" parent="FAg_N-xm-3JlPHzYuXiQ-49">
          <mxGeometry x="-0.0666" relative="1" as="geometry">
            <mxPoint as="offset" />
          </mxGeometry>
        </mxCell>
        <mxCell id="FAg_N-xm-3JlPHzYuXiQ-51" value="Code" style="rounded=0;whiteSpace=wrap;html=1;" vertex="1" parent="1">
          <mxGeometry x="770" y="195" width="50" height="50" as="geometry" />
        </mxCell>
        <mxCell id="FAg_N-xm-3JlPHzYuXiQ-61" style="edgeStyle=orthogonalEdgeStyle;rounded=0;orthogonalLoop=1;jettySize=auto;html=1;entryX=1;entryY=0.25;entryDx=0;entryDy=0;" edge="1" parent="1" source="FAg_N-xm-3JlPHzYuXiQ-54" target="FAg_N-xm-3JlPHzYuXiQ-71">
          <mxGeometry relative="1" as="geometry" />
        </mxCell>
        <mxCell id="FAg_N-xm-3JlPHzYuXiQ-54" value="" style="sketch=0;aspect=fixed;pointerEvents=1;shadow=0;dashed=0;html=1;strokeColor=none;labelPosition=center;verticalLabelPosition=bottom;verticalAlign=top;align=center;fillColor=#00188D;shape=mxgraph.azure.laptop" vertex="1" parent="1">
          <mxGeometry x="3440" y="-610.5" width="416.67" height="250" as="geometry" />
        </mxCell>
        <mxCell id="FAg_N-xm-3JlPHzYuXiQ-55" value="Client&amp;nbsp;" style="text;html=1;strokeColor=none;fillColor=none;align=center;verticalAlign=middle;whiteSpace=wrap;rounded=0;" vertex="1" parent="1">
          <mxGeometry x="3540" y="-650.5" width="60" height="30" as="geometry" />
        </mxCell>
        <mxCell id="FAg_N-xm-3JlPHzYuXiQ-56" value="User" style="text;html=1;strokeColor=none;fillColor=none;align=center;verticalAlign=middle;whiteSpace=wrap;rounded=0;" vertex="1" parent="1">
          <mxGeometry x="3915" y="-660.5" width="60" height="30" as="geometry" />
        </mxCell>
        <mxCell id="FAg_N-xm-3JlPHzYuXiQ-57" value="" style="verticalLabelPosition=bottom;verticalAlign=top;html=1;shadow=0;dashed=0;strokeWidth=1;shape=mxgraph.android.phone2;strokeColor=#c0c0c0;" vertex="1" parent="1">
          <mxGeometry x="4070" y="-180" width="370" height="260" as="geometry" />
        </mxCell>
        <mxCell id="FAg_N-xm-3JlPHzYuXiQ-60" style="edgeStyle=orthogonalEdgeStyle;rounded=0;orthogonalLoop=1;jettySize=auto;html=1;entryX=0.288;entryY=0.76;entryDx=0;entryDy=0;entryPerimeter=0;" edge="1" parent="1" source="FAg_N-xm-3JlPHzYuXiQ-58" target="FAg_N-xm-3JlPHzYuXiQ-54">
          <mxGeometry relative="1" as="geometry" />
        </mxCell>
        <mxCell id="FAg_N-xm-3JlPHzYuXiQ-58" value="" style="dashed=0;outlineConnect=0;html=1;align=center;labelPosition=center;verticalLabelPosition=bottom;verticalAlign=top;shape=mxgraph.weblogos.chrome" vertex="1" parent="1">
          <mxGeometry x="3550" y="-580.5" width="120" height="100" as="geometry" />
        </mxCell>
        <mxCell id="FAg_N-xm-3JlPHzYuXiQ-62" value="FTP Client" style="rounded=1;whiteSpace=wrap;html=1;" vertex="1" parent="1">
          <mxGeometry x="3720" y="-450.5" width="60" height="30" as="geometry" />
        </mxCell>
        <mxCell id="FAg_N-xm-3JlPHzYuXiQ-63" value="Outlook" style="rounded=1;whiteSpace=wrap;html=1;" vertex="1" parent="1">
          <mxGeometry x="3690" y="-500.5" width="60" height="30" as="geometry" />
        </mxCell>
        <mxCell id="FAg_N-xm-3JlPHzYuXiQ-64" value="Teams" style="rounded=1;whiteSpace=wrap;html=1;" vertex="1" parent="1">
          <mxGeometry x="3700" y="-580.5" width="60" height="30" as="geometry" />
        </mxCell>
        <mxCell id="FAg_N-xm-3JlPHzYuXiQ-65" value="" style="rounded=0;whiteSpace=wrap;html=1;" vertex="1" parent="1">
          <mxGeometry x="680" y="-570" width="510" height="350" as="geometry" />
        </mxCell>
        <mxCell id="FAg_N-xm-3JlPHzYuXiQ-66" value="&lt;font style=&quot;font-size: 14px;&quot;&gt;Server: 192.168.1.10&lt;/font&gt;" style="text;html=1;strokeColor=none;fillColor=none;align=center;verticalAlign=middle;whiteSpace=wrap;rounded=0;" vertex="1" parent="1">
          <mxGeometry x="905" y="-190" width="135" height="20" as="geometry" />
        </mxCell>
        <mxCell id="FAg_N-xm-3JlPHzYuXiQ-67" value="&lt;font style=&quot;font-size: 18px;&quot;&gt;os&lt;/font&gt;" style="rounded=0;whiteSpace=wrap;html=1;" vertex="1" parent="1">
          <mxGeometry x="680" y="-340" width="300" height="120" as="geometry" />
        </mxCell>
        <mxCell id="FAg_N-xm-3JlPHzYuXiQ-68" value="HTTP&amp;nbsp;" style="rounded=0;whiteSpace=wrap;html=1;" vertex="1" parent="1">
          <mxGeometry x="740" y="-530" width="120" height="180" as="geometry" />
        </mxCell>
        <mxCell id="FAg_N-xm-3JlPHzYuXiQ-69" value="Firewall" style="rounded=0;whiteSpace=wrap;html=1;" vertex="1" parent="1">
          <mxGeometry x="1080" y="-550" width="90" height="320" as="geometry" />
        </mxCell>
        <mxCell id="FAg_N-xm-3JlPHzYuXiQ-70" value="80" style="rounded=0;whiteSpace=wrap;html=1;" vertex="1" parent="1">
          <mxGeometry x="830" y="-500" width="300" height="40" as="geometry" />
        </mxCell>
        <mxCell id="FAg_N-xm-3JlPHzYuXiQ-71" value="80" style="rounded=0;whiteSpace=wrap;html=1;" vertex="1" parent="1">
          <mxGeometry x="1140" y="-500" width="80" height="40" as="geometry" />
        </mxCell>
        <mxCell id="FAg_N-xm-3JlPHzYuXiQ-72" value="" style="endArrow=classic;html=1;rounded=0;fillColor=#d5e8d4;strokeColor=#82b366;strokeWidth=6;" edge="1" parent="1">
          <mxGeometry width="50" height="50" relative="1" as="geometry">
            <mxPoint x="1390" y="-480" as="sourcePoint" />
            <mxPoint x="1240" y="-480" as="targetPoint" />
          </mxGeometry>
        </mxCell>
        <mxCell id="FAg_N-xm-3JlPHzYuXiQ-73" value="" style="endArrow=classic;html=1;rounded=0;fillColor=#f8cecc;strokeColor=#b85450;strokeWidth=6;" edge="1" parent="1">
          <mxGeometry width="50" height="50" relative="1" as="geometry">
            <mxPoint x="1240" y="-460" as="sourcePoint" />
            <mxPoint x="1380" y="-460" as="targetPoint" />
          </mxGeometry>
        </mxCell>
        <mxCell id="FAg_N-xm-3JlPHzYuXiQ-74" value="Allowed" style="text;html=1;strokeColor=none;fillColor=none;align=center;verticalAlign=middle;whiteSpace=wrap;rounded=0;" vertex="1" parent="1">
          <mxGeometry x="1280" y="-520" width="60" height="30" as="geometry" />
        </mxCell>
        <mxCell id="FAg_N-xm-3JlPHzYuXiQ-75" value="Not Allowed" style="text;html=1;strokeColor=none;fillColor=none;align=center;verticalAlign=middle;whiteSpace=wrap;rounded=0;" vertex="1" parent="1">
          <mxGeometry x="1230" y="-450" width="140" height="30" as="geometry" />
        </mxCell>
        <mxCell id="FAg_N-xm-3JlPHzYuXiQ-76" value="One Role Per Server&amp;nbsp;" style="text;html=1;strokeColor=none;fillColor=none;align=center;verticalAlign=middle;whiteSpace=wrap;rounded=0;" vertex="1" parent="1">
          <mxGeometry x="875" y="-870" width="180" height="30" as="geometry" />
        </mxCell>
        <mxCell id="FAg_N-xm-3JlPHzYuXiQ-77" value="Remote Controls" style="rounded=0;whiteSpace=wrap;html=1;" vertex="1" parent="1">
          <mxGeometry x="920" y="-270" width="190" height="30" as="geometry" />
        </mxCell>
        <mxCell id="FAg_N-xm-3JlPHzYuXiQ-78" value="Remote Controls" style="rounded=0;whiteSpace=wrap;html=1;" vertex="1" parent="1">
          <mxGeometry x="920" y="-320" width="120" height="30" as="geometry" />
        </mxCell>
        <mxCell id="FAg_N-xm-3JlPHzYuXiQ-79" value="22, 3389" style="rounded=0;whiteSpace=wrap;html=1;" vertex="1" parent="1">
          <mxGeometry x="1130" y="-275" width="90" height="40" as="geometry" />
        </mxCell>
        <mxCell id="FAg_N-xm-3JlPHzYuXiQ-80" value="137,139,445." style="rounded=0;whiteSpace=wrap;html=1;" vertex="1" parent="1">
          <mxGeometry x="1050" y="-322.5" width="90" height="35" as="geometry" />
        </mxCell>
        <mxCell id="FAg_N-xm-3JlPHzYuXiQ-81" value="" style="shape=mxgraph.mockup.markup.redX;fillColor=#ff0000;html=1;shadow=0;whiteSpace=wrap;strokeColor=none;rotation=-165;" vertex="1" parent="1">
          <mxGeometry x="1153.8" y="-324" width="42.41" height="34" as="geometry" />
        </mxCell>
        <mxCell id="FAg_N-xm-3JlPHzYuXiQ-82" value="" style="endArrow=classic;html=1;rounded=0;fillColor=#d5e8d4;strokeColor=#82b366;strokeWidth=6;" edge="1" parent="1">
          <mxGeometry width="50" height="50" relative="1" as="geometry">
            <mxPoint x="1390" y="-255.5" as="sourcePoint" />
            <mxPoint x="1240" y="-255.5" as="targetPoint" />
          </mxGeometry>
        </mxCell>
        <mxCell id="FAg_N-xm-3JlPHzYuXiQ-84" value="IPs + Port + Username and Password" style="edgeLabel;html=1;align=center;verticalAlign=middle;resizable=0;points=[];" vertex="1" connectable="0" parent="1">
          <mxGeometry x="1150" y="-170" as="geometry" />
        </mxCell>
        <mxCell id="FAg_N-xm-3JlPHzYuXiQ-87" style="edgeStyle=orthogonalEdgeStyle;rounded=0;orthogonalLoop=1;jettySize=auto;html=1;entryX=1;entryY=0.5;entryDx=0;entryDy=0;" edge="1" parent="1" source="FAg_N-xm-3JlPHzYuXiQ-86" target="FAg_N-xm-3JlPHzYuXiQ-9">
          <mxGeometry relative="1" as="geometry">
            <Array as="points">
              <mxPoint x="800" y="-100" />
              <mxPoint x="1240" y="-100" />
              <mxPoint x="1240" y="130" />
            </Array>
          </mxGeometry>
        </mxCell>
        <mxCell id="FAg_N-xm-3JlPHzYuXiQ-86" value="Redirect" style="rounded=0;whiteSpace=wrap;html=1;" vertex="1" parent="1">
          <mxGeometry x="760" y="-420" width="80" height="50" as="geometry" />
        </mxCell>
        <mxCell id="FAg_N-xm-3JlPHzYuXiQ-88" value="&lt;font style=&quot;font-size: 24px;&quot;&gt;Web Server&lt;/font&gt;" style="text;html=1;strokeColor=none;fillColor=none;align=center;verticalAlign=middle;whiteSpace=wrap;rounded=0;" vertex="1" parent="1">
          <mxGeometry x="882.5" y="-650" width="180" height="30" as="geometry" />
        </mxCell>
        <mxCell id="FAg_N-xm-3JlPHzYuXiQ-90" value="&lt;font style=&quot;font-size: 24px;&quot;&gt;Application Server&amp;nbsp;&lt;/font&gt;" style="text;html=1;strokeColor=none;fillColor=none;align=center;verticalAlign=middle;whiteSpace=wrap;rounded=0;" vertex="1" parent="1">
          <mxGeometry x="842.5" y="-30" width="260" height="30" as="geometry" />
        </mxCell>
        <mxCell id="FAg_N-xm-3JlPHzYuXiQ-91" value="&lt;font style=&quot;font-size: 24px;&quot;&gt;Database Server&lt;/font&gt;" style="text;html=1;strokeColor=none;fillColor=none;align=center;verticalAlign=middle;whiteSpace=wrap;rounded=0;" vertex="1" parent="1">
          <mxGeometry x="790" y="490" width="260" height="30" as="geometry" />
        </mxCell>
        <mxCell id="FAg_N-xm-3JlPHzYuXiQ-93" value="" style="points=[[0.35,0,0],[0.98,0.51,0],[1,0.71,0],[0.67,1,0],[0,0.795,0],[0,0.65,0]];verticalLabelPosition=bottom;sketch=0;html=1;verticalAlign=top;aspect=fixed;align=center;pointerEvents=1;shape=mxgraph.cisco19.user;fillColor=#005073;strokeColor=none;" vertex="1" parent="1">
          <mxGeometry x="1460" y="380" width="125" height="125" as="geometry" />
        </mxCell>
        <mxCell id="FAg_N-xm-3JlPHzYuXiQ-94" value="" style="points=[[0.35,0,0],[0.98,0.51,0],[1,0.71,0],[0.67,1,0],[0,0.795,0],[0,0.65,0]];verticalLabelPosition=bottom;sketch=0;html=1;verticalAlign=top;aspect=fixed;align=center;pointerEvents=1;shape=mxgraph.cisco19.user;fillColor=#005073;strokeColor=none;" vertex="1" parent="1">
          <mxGeometry x="1470" y="195" width="125" height="125" as="geometry" />
        </mxCell>
        <mxCell id="FAg_N-xm-3JlPHzYuXiQ-95" value="" style="points=[[0.35,0,0],[0.98,0.51,0],[1,0.71,0],[0.67,1,0],[0,0.795,0],[0,0.65,0]];verticalLabelPosition=bottom;sketch=0;html=1;verticalAlign=top;aspect=fixed;align=center;pointerEvents=1;shape=mxgraph.cisco19.user;fillColor=#005073;strokeColor=none;" vertex="1" parent="1">
          <mxGeometry x="1460" y="580" width="125" height="125" as="geometry" />
        </mxCell>
        <mxCell id="FAg_N-xm-3JlPHzYuXiQ-96" value="&lt;font style=&quot;font-size: 24px;&quot;&gt;IT Admins&lt;/font&gt;" style="text;html=1;strokeColor=none;fillColor=none;align=center;verticalAlign=middle;whiteSpace=wrap;rounded=0;" vertex="1" parent="1">
          <mxGeometry x="1450" y="120" width="140" height="30" as="geometry" />
        </mxCell>
        <mxCell id="FAg_N-xm-3JlPHzYuXiQ-100" value="" style="image;aspect=fixed;html=1;points=[];align=center;fontSize=12;image=img/lib/azure2/networking/Virtual_Router.svg;" vertex="1" parent="1">
          <mxGeometry x="2460" y="-545.95" width="141" height="141" as="geometry" />
        </mxCell>
        <mxCell id="FAg_N-xm-3JlPHzYuXiQ-101" value="" style="ellipse;shape=cloud;whiteSpace=wrap;html=1;" vertex="1" parent="1">
          <mxGeometry x="2930" y="-614" width="400" height="290" as="geometry" />
        </mxCell>
        <mxCell id="FAg_N-xm-3JlPHzYuXiQ-102" value="&lt;h1&gt;Published Servers&amp;nbsp;&lt;/h1&gt;&lt;p&gt;&lt;font style=&quot;font-size: 18px;&quot;&gt;Company Website&amp;nbsp;&lt;/font&gt;&lt;/p&gt;" style="text;html=1;strokeColor=none;fillColor=none;spacing=5;spacingTop=-20;whiteSpace=wrap;overflow=hidden;rounded=0;" vertex="1" parent="1">
          <mxGeometry x="2690" y="-791.5" width="330" height="120" as="geometry" />
        </mxCell>
        <mxCell id="FAg_N-xm-3JlPHzYuXiQ-103" value="&lt;font style=&quot;font-size: 48px;&quot;&gt;35.246.275.20&lt;/font&gt;" style="text;html=1;strokeColor=none;fillColor=none;align=center;verticalAlign=middle;whiteSpace=wrap;rounded=0;" vertex="1" parent="1">
          <mxGeometry x="2340" y="-930" width="420" height="90" as="geometry" />
        </mxCell>
        <mxCell id="FAg_N-xm-3JlPHzYuXiQ-104" value="&lt;font style=&quot;font-size: 48px;&quot;&gt;acabesinternational.com/&lt;/font&gt;" style="text;html=1;strokeColor=none;fillColor=none;align=center;verticalAlign=middle;whiteSpace=wrap;rounded=0;" vertex="1" parent="1">
          <mxGeometry x="2160" y="-1020" width="840" height="90" as="geometry" />
        </mxCell>
        <mxCell id="FAg_N-xm-3JlPHzYuXiQ-105" value="" style="image;aspect=fixed;perimeter=ellipsePerimeter;html=1;align=center;shadow=0;dashed=0;spacingTop=3;image=img/lib/active_directory/firewall.svg;" vertex="1" parent="1">
          <mxGeometry x="2200" y="-600" width="170.8" height="280" as="geometry" />
        </mxCell>
        <mxCell id="FAg_N-xm-3JlPHzYuXiQ-153" value="ACL Rules" style="shape=table;startSize=30;container=1;collapsible=0;childLayout=tableLayout;strokeColor=default;fontSize=16;" vertex="1" parent="1">
          <mxGeometry x="1890" y="-235" width="530" height="340" as="geometry" />
        </mxCell>
        <mxCell id="FAg_N-xm-3JlPHzYuXiQ-154" value="" style="shape=tableRow;horizontal=0;startSize=0;swimlaneHead=0;swimlaneBody=0;strokeColor=inherit;top=0;left=0;bottom=0;right=0;collapsible=0;dropTarget=0;fillColor=none;points=[[0,0.5],[1,0.5]];portConstraint=eastwest;fontSize=16;" vertex="1" parent="FAg_N-xm-3JlPHzYuXiQ-153">
          <mxGeometry y="30" width="530" height="103" as="geometry" />
        </mxCell>
        <mxCell id="FAg_N-xm-3JlPHzYuXiQ-155" value="Action" style="shape=partialRectangle;html=1;whiteSpace=wrap;connectable=0;strokeColor=inherit;overflow=hidden;fillColor=none;top=0;left=0;bottom=0;right=0;pointerEvents=1;fontSize=16;" vertex="1" parent="FAg_N-xm-3JlPHzYuXiQ-154">
          <mxGeometry width="170" height="103" as="geometry">
            <mxRectangle width="170" height="103" as="alternateBounds" />
          </mxGeometry>
        </mxCell>
        <mxCell id="FAg_N-xm-3JlPHzYuXiQ-156" value="Port" style="shape=partialRectangle;html=1;whiteSpace=wrap;connectable=0;strokeColor=inherit;overflow=hidden;fillColor=none;top=0;left=0;bottom=0;right=0;pointerEvents=1;fontSize=16;" vertex="1" parent="FAg_N-xm-3JlPHzYuXiQ-154">
          <mxGeometry x="170" width="183" height="103" as="geometry">
            <mxRectangle width="183" height="103" as="alternateBounds" />
          </mxGeometry>
        </mxCell>
        <mxCell id="FAg_N-xm-3JlPHzYuXiQ-157" value="Purpose" style="shape=partialRectangle;html=1;whiteSpace=wrap;connectable=0;strokeColor=inherit;overflow=hidden;fillColor=none;top=0;left=0;bottom=0;right=0;pointerEvents=1;fontSize=16;" vertex="1" parent="FAg_N-xm-3JlPHzYuXiQ-154">
          <mxGeometry x="353" width="177" height="103" as="geometry">
            <mxRectangle width="177" height="103" as="alternateBounds" />
          </mxGeometry>
        </mxCell>
        <mxCell id="FAg_N-xm-3JlPHzYuXiQ-158" value="" style="shape=tableRow;horizontal=0;startSize=0;swimlaneHead=0;swimlaneBody=0;strokeColor=inherit;top=0;left=0;bottom=0;right=0;collapsible=0;dropTarget=0;fillColor=none;points=[[0,0.5],[1,0.5]];portConstraint=eastwest;fontSize=16;" vertex="1" parent="FAg_N-xm-3JlPHzYuXiQ-153">
          <mxGeometry y="133" width="530" height="104" as="geometry" />
        </mxCell>
        <mxCell id="FAg_N-xm-3JlPHzYuXiQ-159" value="Allow" style="shape=partialRectangle;html=1;whiteSpace=wrap;connectable=0;strokeColor=inherit;overflow=hidden;fillColor=none;top=0;left=0;bottom=0;right=0;pointerEvents=1;fontSize=16;" vertex="1" parent="FAg_N-xm-3JlPHzYuXiQ-158">
          <mxGeometry width="170" height="104" as="geometry">
            <mxRectangle width="170" height="104" as="alternateBounds" />
          </mxGeometry>
        </mxCell>
        <mxCell id="FAg_N-xm-3JlPHzYuXiQ-160" value="443" style="shape=partialRectangle;html=1;whiteSpace=wrap;connectable=0;strokeColor=inherit;overflow=hidden;fillColor=none;top=0;left=0;bottom=0;right=0;pointerEvents=1;fontSize=16;" vertex="1" parent="FAg_N-xm-3JlPHzYuXiQ-158">
          <mxGeometry x="170" width="183" height="104" as="geometry">
            <mxRectangle width="183" height="104" as="alternateBounds" />
          </mxGeometry>
        </mxCell>
        <mxCell id="FAg_N-xm-3JlPHzYuXiQ-161" value="Web" style="shape=partialRectangle;html=1;whiteSpace=wrap;connectable=0;strokeColor=inherit;overflow=hidden;fillColor=none;top=0;left=0;bottom=0;right=0;pointerEvents=1;fontSize=16;" vertex="1" parent="FAg_N-xm-3JlPHzYuXiQ-158">
          <mxGeometry x="353" width="177" height="104" as="geometry">
            <mxRectangle width="177" height="104" as="alternateBounds" />
          </mxGeometry>
        </mxCell>
        <mxCell id="FAg_N-xm-3JlPHzYuXiQ-162" value="" style="shape=tableRow;horizontal=0;startSize=0;swimlaneHead=0;swimlaneBody=0;strokeColor=inherit;top=0;left=0;bottom=0;right=0;collapsible=0;dropTarget=0;fillColor=none;points=[[0,0.5],[1,0.5]];portConstraint=eastwest;fontSize=16;" vertex="1" parent="FAg_N-xm-3JlPHzYuXiQ-153">
          <mxGeometry y="237" width="530" height="103" as="geometry" />
        </mxCell>
        <mxCell id="FAg_N-xm-3JlPHzYuXiQ-163" value="" style="shape=partialRectangle;html=1;whiteSpace=wrap;connectable=0;strokeColor=inherit;overflow=hidden;fillColor=none;top=0;left=0;bottom=0;right=0;pointerEvents=1;fontSize=16;" vertex="1" parent="FAg_N-xm-3JlPHzYuXiQ-162">
          <mxGeometry width="170" height="103" as="geometry">
            <mxRectangle width="170" height="103" as="alternateBounds" />
          </mxGeometry>
        </mxCell>
        <mxCell id="FAg_N-xm-3JlPHzYuXiQ-164" value="" style="shape=partialRectangle;html=1;whiteSpace=wrap;connectable=0;strokeColor=inherit;overflow=hidden;fillColor=none;top=0;left=0;bottom=0;right=0;pointerEvents=1;fontSize=16;" vertex="1" parent="FAg_N-xm-3JlPHzYuXiQ-162">
          <mxGeometry x="170" width="183" height="103" as="geometry">
            <mxRectangle width="183" height="103" as="alternateBounds" />
          </mxGeometry>
        </mxCell>
        <mxCell id="FAg_N-xm-3JlPHzYuXiQ-165" value="" style="shape=partialRectangle;html=1;whiteSpace=wrap;connectable=0;strokeColor=inherit;overflow=hidden;fillColor=none;top=0;left=0;bottom=0;right=0;pointerEvents=1;fontSize=16;" vertex="1" parent="FAg_N-xm-3JlPHzYuXiQ-162">
          <mxGeometry x="353" width="177" height="103" as="geometry">
            <mxRectangle width="177" height="103" as="alternateBounds" />
          </mxGeometry>
        </mxCell>
        <mxCell id="FAg_N-xm-3JlPHzYuXiQ-167" value="Deny&amp;nbsp;" style="shape=partialRectangle;html=1;whiteSpace=wrap;connectable=0;strokeColor=inherit;overflow=hidden;fillColor=none;top=0;left=0;bottom=0;right=0;pointerEvents=1;fontSize=16;" vertex="1" parent="1">
          <mxGeometry x="2280" y="-31" width="177" height="103" as="geometry">
            <mxRectangle width="177" height="103" as="alternateBounds" />
          </mxGeometry>
        </mxCell>
        <mxCell id="FAg_N-xm-3JlPHzYuXiQ-168" value="Any" style="shape=partialRectangle;html=1;whiteSpace=wrap;connectable=0;strokeColor=inherit;overflow=hidden;fillColor=none;top=0;left=0;bottom=0;right=0;pointerEvents=1;fontSize=16;" vertex="1" parent="1">
          <mxGeometry x="2457" y="-31" width="176" height="103" as="geometry">
            <mxRectangle width="176" height="103" as="alternateBounds" />
          </mxGeometry>
        </mxCell>
        <mxCell id="FAg_N-xm-3JlPHzYuXiQ-169" value="" style="shape=partialRectangle;html=1;whiteSpace=wrap;connectable=0;strokeColor=inherit;overflow=hidden;fillColor=none;top=0;left=0;bottom=0;right=0;pointerEvents=1;fontSize=16;" vertex="1" parent="1">
          <mxGeometry x="2633" y="142" width="177" height="103" as="geometry">
            <mxRectangle width="177" height="103" as="alternateBounds" />
          </mxGeometry>
        </mxCell>
        <mxCell id="FAg_N-xm-3JlPHzYuXiQ-170" value="" style="image;points=[];aspect=fixed;html=1;align=center;shadow=0;dashed=0;image=img/lib/allied_telesis/computer_and_terminals/IP_TV.svg;" vertex="1" parent="1">
          <mxGeometry x="1955" y="-560" width="151.36" height="155.05" as="geometry" />
        </mxCell>
        <mxCell id="FAg_N-xm-3JlPHzYuXiQ-171" value="&lt;font style=&quot;font-size: 48px;&quot;&gt;IPS&amp;nbsp;&lt;/font&gt;" style="text;html=1;strokeColor=none;fillColor=none;align=center;verticalAlign=middle;whiteSpace=wrap;rounded=0;" vertex="1" parent="1">
          <mxGeometry x="2060" y="-708" width="60" height="60" as="geometry" />
        </mxCell>
        <mxCell id="FAg_N-xm-3JlPHzYuXiQ-173" style="edgeStyle=orthogonalEdgeStyle;rounded=0;orthogonalLoop=1;jettySize=auto;html=1;" edge="1" parent="1" source="FAg_N-xm-3JlPHzYuXiQ-172">
          <mxGeometry relative="1" as="geometry">
            <mxPoint x="1850" y="-490" as="targetPoint" />
          </mxGeometry>
        </mxCell>
        <mxCell id="FAg_N-xm-3JlPHzYuXiQ-172" value="&lt;font style=&quot;font-size: 36px;&quot;&gt;IDS&lt;/font&gt;" style="rounded=0;whiteSpace=wrap;html=1;" vertex="1" parent="1">
          <mxGeometry x="1750" y="-732.5" width="205" height="120" as="geometry" />
        </mxCell>
        <mxCell id="FAg_N-xm-3JlPHzYuXiQ-180" value="&lt;font style=&quot;font-size: 36px;&quot;&gt;WAF&lt;br&gt;HTTP&lt;br&gt;&lt;/font&gt;" style="rounded=0;whiteSpace=wrap;html=1;" vertex="1" parent="1">
          <mxGeometry x="1430" y="-560" width="205" height="120" as="geometry" />
        </mxCell>
        <mxCell id="FAg_N-xm-3JlPHzYuXiQ-181" value="" style="image;aspect=fixed;perimeter=ellipsePerimeter;html=1;align=center;shadow=0;dashed=0;spacingTop=3;image=img/lib/active_directory/firewall.svg;" vertex="1" parent="1">
          <mxGeometry x="905" y="-160" width="73.2" height="120" as="geometry" />
        </mxCell>
        <mxCell id="FAg_N-xm-3JlPHzYuXiQ-184" value="LAN" style="text;html=1;strokeColor=none;fillColor=none;align=center;verticalAlign=middle;whiteSpace=wrap;rounded=0;" vertex="1" parent="1">
          <mxGeometry x="632" y="-80" width="60" height="30" as="geometry" />
        </mxCell>
      </root>
    </mxGraphModel>
  </diagram>
  <diagram id="0xzNcsPDM5fVeqPA4lPa" name="Monolithic Architecture 1">
    <mxGraphModel dx="1290" dy="-532" grid="1" gridSize="10" guides="1" tooltips="1" connect="1" arrows="1" fold="1" page="1" pageScale="1" pageWidth="850" pageHeight="1100" math="0" shadow="0">
      <root>
        <mxCell id="0" />
        <mxCell id="1" parent="0" />
        <mxCell id="xvpdCFGPxGT2FbzmjJ1S-1" value="" style="rounded=0;whiteSpace=wrap;html=1;strokeWidth=5;strokeColor=#FFCC99;" vertex="1" parent="1">
          <mxGeometry x="10" y="1120" width="790" height="490" as="geometry" />
        </mxCell>
        <mxCell id="xvpdCFGPxGT2FbzmjJ1S-2" value="" style="rounded=0;whiteSpace=wrap;html=1;" vertex="1" parent="1">
          <mxGeometry x="140" y="1220" width="570" height="332" as="geometry" />
        </mxCell>
        <mxCell id="xvpdCFGPxGT2FbzmjJ1S-3" value="" style="rounded=0;whiteSpace=wrap;html=1;" vertex="1" parent="1">
          <mxGeometry x="139.99999999999997" y="1402" width="180" height="150" as="geometry" />
        </mxCell>
        <mxCell id="xvpdCFGPxGT2FbzmjJ1S-4" value="" style="rounded=0;whiteSpace=wrap;html=1;" vertex="1" parent="1">
          <mxGeometry x="140" y="1220" width="180" height="142" as="geometry" />
        </mxCell>
        <mxCell id="xvpdCFGPxGT2FbzmjJ1S-5" value="" style="rounded=0;whiteSpace=wrap;html=1;" vertex="1" parent="1">
          <mxGeometry x="530" y="1220" width="180" height="142" as="geometry" />
        </mxCell>
        <mxCell id="xvpdCFGPxGT2FbzmjJ1S-6" value="" style="rounded=0;whiteSpace=wrap;html=1;" vertex="1" parent="1">
          <mxGeometry x="530.0000000000001" y="1402" width="180" height="150" as="geometry" />
        </mxCell>
        <mxCell id="xvpdCFGPxGT2FbzmjJ1S-7" value="" style="sketch=0;pointerEvents=1;shadow=0;dashed=0;html=1;strokeColor=none;fillColor=#434445;aspect=fixed;labelPosition=center;verticalLabelPosition=bottom;verticalAlign=top;align=center;outlineConnect=0;shape=mxgraph.vvd.mouse;" vertex="1" parent="1">
          <mxGeometry x="170.39999999999998" y="1292" width="19.6" height="40" as="geometry" />
        </mxCell>
        <mxCell id="xvpdCFGPxGT2FbzmjJ1S-8" value="" style="sketch=0;pointerEvents=1;shadow=0;dashed=0;html=1;strokeColor=none;fillColor=#434445;aspect=fixed;labelPosition=center;verticalLabelPosition=bottom;verticalAlign=top;align=center;outlineConnect=0;shape=mxgraph.vvd.mouse;" vertex="1" parent="1">
          <mxGeometry x="160.39999999999998" y="1482" width="19.6" height="40" as="geometry" />
        </mxCell>
        <mxCell id="xvpdCFGPxGT2FbzmjJ1S-9" value="" style="sketch=0;pointerEvents=1;shadow=0;dashed=0;html=1;strokeColor=none;fillColor=#434445;aspect=fixed;labelPosition=center;verticalLabelPosition=bottom;verticalAlign=top;align=center;outlineConnect=0;shape=mxgraph.vvd.mouse;" vertex="1" parent="1">
          <mxGeometry x="550.4000000000001" y="1482" width="19.6" height="40" as="geometry" />
        </mxCell>
        <mxCell id="xvpdCFGPxGT2FbzmjJ1S-10" value="" style="sketch=0;pointerEvents=1;shadow=0;dashed=0;html=1;strokeColor=none;fillColor=#434445;aspect=fixed;labelPosition=center;verticalLabelPosition=bottom;verticalAlign=top;align=center;outlineConnect=0;shape=mxgraph.vvd.mouse;" vertex="1" parent="1">
          <mxGeometry x="560.4000000000001" y="1292" width="19.6" height="40" as="geometry" />
        </mxCell>
        <mxCell id="xvpdCFGPxGT2FbzmjJ1S-11" value="Actor" style="shape=umlActor;verticalLabelPosition=bottom;verticalAlign=top;html=1;outlineConnect=0;" vertex="1" parent="1">
          <mxGeometry x="740.0000000000001" y="1282" width="20" height="40" as="geometry" />
        </mxCell>
        <mxCell id="xvpdCFGPxGT2FbzmjJ1S-12" value="" style="html=1;verticalLabelPosition=bottom;labelBackgroundColor=#ffffff;verticalAlign=top;shadow=0;dashed=0;strokeWidth=1;shape=mxgraph.ios7ui.onOffButton;buttonState=on;strokeColor=#38D145;strokeColor2=#aaaaaa;fillColor=#38D145;fillColor2=#ffffff;" vertex="1" parent="1">
          <mxGeometry x="650.0000000000001" y="1532" width="43.5" height="15" as="geometry" />
        </mxCell>
        <mxCell id="xvpdCFGPxGT2FbzmjJ1S-13" value="desktop" style="sketch=0;outlineConnect=0;gradientColor=none;fontColor=#545B64;strokeColor=none;fillColor=#879196;dashed=0;verticalLabelPosition=bottom;verticalAlign=top;align=center;html=1;fontSize=12;fontStyle=0;aspect=fixed;shape=mxgraph.aws4.illustration_desktop;pointerEvents=1" vertex="1" parent="1">
          <mxGeometry x="192.97" y="1256.5" width="67.03" height="61" as="geometry" />
        </mxCell>
        <mxCell id="xvpdCFGPxGT2FbzmjJ1S-14" value="" style="fontColor=#0066CC;verticalAlign=top;verticalLabelPosition=bottom;labelPosition=center;align=center;html=1;outlineConnect=0;fillColor=#CCCCCC;strokeColor=#6881B3;gradientColor=none;gradientDirection=north;strokeWidth=2;shape=mxgraph.networks.desktop_pc;" vertex="1" parent="1">
          <mxGeometry x="276.75" y="1247" width="30" height="80" as="geometry" />
        </mxCell>
        <mxCell id="xvpdCFGPxGT2FbzmjJ1S-15" value="" style="fontColor=#0066CC;verticalAlign=top;verticalLabelPosition=bottom;labelPosition=center;align=center;html=1;outlineConnect=0;fillColor=#CCCCCC;strokeColor=#6881B3;gradientColor=none;gradientDirection=north;strokeWidth=2;shape=mxgraph.networks.desktop_pc;" vertex="1" parent="1">
          <mxGeometry x="670.0000000000001" y="1247" width="30" height="80" as="geometry" />
        </mxCell>
        <mxCell id="xvpdCFGPxGT2FbzmjJ1S-16" value="desktop" style="sketch=0;outlineConnect=0;gradientColor=none;fontColor=#545B64;strokeColor=none;fillColor=#879196;dashed=0;verticalLabelPosition=bottom;verticalAlign=top;align=center;html=1;fontSize=12;fontStyle=0;aspect=fixed;shape=mxgraph.aws4.illustration_desktop;pointerEvents=1" vertex="1" parent="1">
          <mxGeometry x="186.48" y="1456" width="67.03" height="61" as="geometry" />
        </mxCell>
        <mxCell id="xvpdCFGPxGT2FbzmjJ1S-17" value="" style="fontColor=#0066CC;verticalAlign=top;verticalLabelPosition=bottom;labelPosition=center;align=center;html=1;outlineConnect=0;fillColor=#CCCCCC;strokeColor=#6881B3;gradientColor=none;gradientDirection=north;strokeWidth=2;shape=mxgraph.networks.desktop_pc;" vertex="1" parent="1">
          <mxGeometry x="266.75" y="1437" width="30" height="80" as="geometry" />
        </mxCell>
        <mxCell id="xvpdCFGPxGT2FbzmjJ1S-18" value="desktop" style="sketch=0;outlineConnect=0;gradientColor=none;fontColor=#545B64;strokeColor=none;fillColor=#879196;dashed=0;verticalLabelPosition=bottom;verticalAlign=top;align=center;html=1;fontSize=12;fontStyle=0;aspect=fixed;shape=mxgraph.aws4.illustration_desktop;pointerEvents=1" vertex="1" parent="1">
          <mxGeometry x="582.9700000000001" y="1456" width="67.03" height="61" as="geometry" />
        </mxCell>
        <mxCell id="xvpdCFGPxGT2FbzmjJ1S-19" value="" style="fontColor=#0066CC;verticalAlign=top;verticalLabelPosition=bottom;labelPosition=center;align=center;html=1;outlineConnect=0;fillColor=#CCCCCC;strokeColor=#6881B3;gradientColor=none;gradientDirection=north;strokeWidth=2;shape=mxgraph.networks.desktop_pc;" vertex="1" parent="1">
          <mxGeometry x="666.7500000000001" y="1428" width="30" height="80" as="geometry" />
        </mxCell>
        <mxCell id="xvpdCFGPxGT2FbzmjJ1S-20" value="" style="html=1;verticalLabelPosition=bottom;labelBackgroundColor=#ffffff;verticalAlign=top;shadow=0;dashed=0;strokeWidth=1;shape=mxgraph.ios7ui.onOffButton;buttonState=on;strokeColor=#38D145;strokeColor2=#aaaaaa;fillColor=#38D145;fillColor2=#ffffff;" vertex="1" parent="1">
          <mxGeometry x="656.5000000000001" y="1337" width="43.5" height="15" as="geometry" />
        </mxCell>
        <mxCell id="xvpdCFGPxGT2FbzmjJ1S-21" value="" style="edgeStyle=orthogonalEdgeStyle;rounded=0;orthogonalLoop=1;jettySize=auto;html=1;" edge="1" parent="1" source="xvpdCFGPxGT2FbzmjJ1S-22" target="xvpdCFGPxGT2FbzmjJ1S-14">
          <mxGeometry relative="1" as="geometry" />
        </mxCell>
        <mxCell id="xvpdCFGPxGT2FbzmjJ1S-22" value="" style="html=1;verticalLabelPosition=bottom;labelBackgroundColor=#ffffff;verticalAlign=top;shadow=0;dashed=0;strokeWidth=1;shape=mxgraph.ios7ui.onOffButton;buttonState=on;strokeColor=#38D145;strokeColor2=#aaaaaa;fillColor=#38D145;fillColor2=#ffffff;" vertex="1" parent="1">
          <mxGeometry x="270" y="1337" width="43.5" height="15" as="geometry" />
        </mxCell>
        <mxCell id="xvpdCFGPxGT2FbzmjJ1S-23" value="" style="html=1;verticalLabelPosition=bottom;labelBackgroundColor=#ffffff;verticalAlign=top;shadow=0;dashed=0;strokeWidth=1;shape=mxgraph.ios7ui.onOffButton;buttonState=on;strokeColor=#38D145;strokeColor2=#aaaaaa;fillColor=#38D145;fillColor2=#ffffff;" vertex="1" parent="1">
          <mxGeometry x="270" y="1532" width="43.5" height="15" as="geometry" />
        </mxCell>
        <mxCell id="xvpdCFGPxGT2FbzmjJ1S-24" value="" style="rounded=0;whiteSpace=wrap;html=1;" vertex="1" parent="1">
          <mxGeometry x="335" y="1262" width="180" height="260" as="geometry" />
        </mxCell>
        <mxCell id="xvpdCFGPxGT2FbzmjJ1S-25" style="edgeStyle=orthogonalEdgeStyle;rounded=0;orthogonalLoop=1;jettySize=auto;html=1;" edge="1" parent="1">
          <mxGeometry relative="1" as="geometry">
            <mxPoint x="446.5000000000001" y="1390.1" as="sourcePoint" />
            <mxPoint x="620.0200000000001" y="1302.9563566937109" as="targetPoint" />
          </mxGeometry>
        </mxCell>
        <mxCell id="xvpdCFGPxGT2FbzmjJ1S-26" style="edgeStyle=orthogonalEdgeStyle;rounded=0;orthogonalLoop=1;jettySize=auto;html=1;entryX=0.75;entryY=0;entryDx=0;entryDy=0;" edge="1" parent="1">
          <mxGeometry relative="1" as="geometry">
            <mxPoint x="443.5000000000001" y="1390.1" as="sourcePoint" />
            <mxPoint x="620.7500000000001" y="1457" as="targetPoint" />
          </mxGeometry>
        </mxCell>
        <mxCell id="xvpdCFGPxGT2FbzmjJ1S-27" style="edgeStyle=orthogonalEdgeStyle;rounded=0;orthogonalLoop=1;jettySize=auto;html=1;" edge="1" parent="1" target="xvpdCFGPxGT2FbzmjJ1S-13">
          <mxGeometry relative="1" as="geometry">
            <mxPoint x="402.5000000000001" y="1390.1" as="sourcePoint" />
          </mxGeometry>
        </mxCell>
        <mxCell id="xvpdCFGPxGT2FbzmjJ1S-28" style="edgeStyle=orthogonalEdgeStyle;rounded=0;orthogonalLoop=1;jettySize=auto;html=1;entryX=0.5;entryY=0;entryDx=0;entryDy=0;startArrow=none;" edge="1" parent="1" source="xvpdCFGPxGT2FbzmjJ1S-45">
          <mxGeometry relative="1" as="geometry">
            <mxPoint x="408.5" y="1390.1" as="sourcePoint" />
            <mxPoint x="226.00000000000009" y="1457" as="targetPoint" />
          </mxGeometry>
        </mxCell>
        <mxCell id="xvpdCFGPxGT2FbzmjJ1S-29" value="Server" style="text;html=1;strokeColor=none;fillColor=none;align=center;verticalAlign=middle;whiteSpace=wrap;rounded=0;" vertex="1" parent="1">
          <mxGeometry x="395" y="1478" width="60" height="30" as="geometry" />
        </mxCell>
        <mxCell id="xvpdCFGPxGT2FbzmjJ1S-30" value="&lt;h1&gt;Monolithic&amp;nbsp;Applications&lt;/h1&gt;" style="text;html=1;strokeColor=none;fillColor=none;spacing=5;spacingTop=-20;whiteSpace=wrap;overflow=hidden;rounded=0;" vertex="1" parent="1">
          <mxGeometry x="276.75" y="1140" width="308.82" height="40" as="geometry" />
        </mxCell>
        <mxCell id="xvpdCFGPxGT2FbzmjJ1S-31" value="desktop" style="sketch=0;outlineConnect=0;gradientColor=none;fontColor=#545B64;strokeColor=none;fillColor=#879196;dashed=0;verticalLabelPosition=bottom;verticalAlign=top;align=center;html=1;fontSize=12;fontStyle=0;aspect=fixed;shape=mxgraph.aws4.illustration_desktop;pointerEvents=1" vertex="1" parent="1">
          <mxGeometry x="588.4900000000001" y="1242" width="67.03" height="61" as="geometry" />
        </mxCell>
        <mxCell id="xvpdCFGPxGT2FbzmjJ1S-32" value="" style="rounded=0;whiteSpace=wrap;html=1;strokeWidth=6;" vertex="1" parent="1">
          <mxGeometry x="370.52" y="1282" width="120" height="190" as="geometry" />
        </mxCell>
        <mxCell id="xvpdCFGPxGT2FbzmjJ1S-33" value="" style="rounded=0;whiteSpace=wrap;html=1;strokeWidth=5;" vertex="1" parent="1">
          <mxGeometry x="370.52" y="1372" width="120" height="100" as="geometry" />
        </mxCell>
        <mxCell id="xvpdCFGPxGT2FbzmjJ1S-34" value="" style="image;html=1;image=img/lib/clip_art/computers/Virtual_Application_128x128.png;fillColor=#B266FF;" vertex="1" parent="1">
          <mxGeometry x="408.02" y="1331" width="45" height="41" as="geometry" />
        </mxCell>
        <mxCell id="xvpdCFGPxGT2FbzmjJ1S-35" value="" style="image;html=1;image=img/lib/clip_art/computers/Virtual_Application_128x128.png;fillColor=#B266FF;" vertex="1" parent="1">
          <mxGeometry x="405" y="1428" width="45" height="40" as="geometry" />
        </mxCell>
        <mxCell id="xvpdCFGPxGT2FbzmjJ1S-36" value="Interface" style="text;html=1;strokeColor=none;fillColor=none;align=center;verticalAlign=middle;whiteSpace=wrap;rounded=0;" vertex="1" parent="1">
          <mxGeometry x="400.52" y="1303" width="60" height="30" as="geometry" />
        </mxCell>
        <mxCell id="xvpdCFGPxGT2FbzmjJ1S-37" value="Logic&amp;nbsp;" style="text;html=1;strokeColor=none;fillColor=none;align=center;verticalAlign=middle;whiteSpace=wrap;rounded=0;" vertex="1" parent="1">
          <mxGeometry x="400.52" y="1402" width="60" height="30" as="geometry" />
        </mxCell>
        <mxCell id="xvpdCFGPxGT2FbzmjJ1S-38" value="" style="dashed=0;outlineConnect=0;html=1;align=center;labelPosition=center;verticalLabelPosition=bottom;verticalAlign=top;shape=mxgraph.weblogos.chrome;strokeWidth=5;fillColor=#B266FF;" vertex="1" parent="1">
          <mxGeometry x="200.52" y="1262" width="30" height="25.4" as="geometry" />
        </mxCell>
        <mxCell id="xvpdCFGPxGT2FbzmjJ1S-39" value="" style="dashed=0;outlineConnect=0;html=1;align=center;labelPosition=center;verticalLabelPosition=bottom;verticalAlign=top;shape=mxgraph.weblogos.chrome;strokeWidth=5;fillColor=#B266FF;" vertex="1" parent="1">
          <mxGeometry x="192.97" y="1464.3000000000002" width="30" height="25.4" as="geometry" />
        </mxCell>
        <mxCell id="xvpdCFGPxGT2FbzmjJ1S-40" value="" style="dashed=0;outlineConnect=0;html=1;align=center;labelPosition=center;verticalLabelPosition=bottom;verticalAlign=top;shape=mxgraph.weblogos.chrome;strokeWidth=5;fillColor=#B266FF;" vertex="1" parent="1">
          <mxGeometry x="589.0300000000001" y="1467" width="30" height="25.4" as="geometry" />
        </mxCell>
        <mxCell id="xvpdCFGPxGT2FbzmjJ1S-41" value="" style="dashed=0;outlineConnect=0;html=1;align=center;labelPosition=center;verticalLabelPosition=bottom;verticalAlign=top;shape=mxgraph.weblogos.chrome;strokeWidth=5;fillColor=#B266FF;" vertex="1" parent="1">
          <mxGeometry x="595.5200000000001" y="1247.3" width="30" height="25.4" as="geometry" />
        </mxCell>
        <mxCell id="xvpdCFGPxGT2FbzmjJ1S-42" value="HTML,JS,CSS" style="text;html=1;strokeColor=none;fillColor=none;align=center;verticalAlign=middle;whiteSpace=wrap;rounded=0;" vertex="1" parent="1">
          <mxGeometry x="390.52" y="1282" width="60" height="30" as="geometry" />
        </mxCell>
        <mxCell id="xvpdCFGPxGT2FbzmjJ1S-43" value="C#,C++,Java,php" style="text;html=1;strokeColor=none;fillColor=none;align=center;verticalAlign=middle;whiteSpace=wrap;rounded=0;" vertex="1" parent="1">
          <mxGeometry x="375.52" y="1372" width="110" height="30" as="geometry" />
        </mxCell>
        <mxCell id="xvpdCFGPxGT2FbzmjJ1S-44" value="HTML,JS,CSS" style="text;html=1;strokeColor=none;fillColor=none;align=center;verticalAlign=middle;whiteSpace=wrap;rounded=0;" vertex="1" parent="1">
          <mxGeometry x="196.48" y="1226.5" width="60" height="30" as="geometry" />
        </mxCell>
        <mxCell id="xvpdCFGPxGT2FbzmjJ1S-45" value="HTML,JS,CSS" style="text;html=1;strokeColor=none;fillColor=none;align=center;verticalAlign=middle;whiteSpace=wrap;rounded=0;" vertex="1" parent="1">
          <mxGeometry x="180.04999999999998" y="1432" width="60" height="30" as="geometry" />
        </mxCell>
        <mxCell id="xvpdCFGPxGT2FbzmjJ1S-46" value="" style="edgeStyle=orthogonalEdgeStyle;rounded=0;orthogonalLoop=1;jettySize=auto;html=1;entryX=0.5;entryY=0;entryDx=0;entryDy=0;endArrow=none;" edge="1" parent="1" target="xvpdCFGPxGT2FbzmjJ1S-45">
          <mxGeometry relative="1" as="geometry">
            <mxPoint x="375.5200000000001" y="1390" as="sourcePoint" />
            <mxPoint x="226.00000000000003" y="1457" as="targetPoint" />
          </mxGeometry>
        </mxCell>
        <mxCell id="xvpdCFGPxGT2FbzmjJ1S-47" value="HTML,JS,CSS" style="text;html=1;strokeColor=none;fillColor=none;align=center;verticalAlign=middle;whiteSpace=wrap;rounded=0;" vertex="1" parent="1">
          <mxGeometry x="585.0000000000001" y="1428" width="60" height="30" as="geometry" />
        </mxCell>
        <mxCell id="xvpdCFGPxGT2FbzmjJ1S-48" value="HTML,JS,CSS" style="text;html=1;strokeColor=none;fillColor=none;align=center;verticalAlign=middle;whiteSpace=wrap;rounded=0;" vertex="1" parent="1">
          <mxGeometry x="588.4900000000001" y="1220" width="60" height="30" as="geometry" />
        </mxCell>
        <mxCell id="xvpdCFGPxGT2FbzmjJ1S-49" value="" style="rounded=0;whiteSpace=wrap;html=1;strokeWidth=6;" vertex="1" parent="1">
          <mxGeometry x="166.5" y="1650" width="490" height="540" as="geometry" />
        </mxCell>
        <mxCell id="xvpdCFGPxGT2FbzmjJ1S-50" value="" style="endArrow=none;html=1;rounded=0;exitX=0;exitY=0.75;exitDx=0;exitDy=0;entryX=1;entryY=0.75;entryDx=0;entryDy=0;strokeWidth=3;" edge="1" parent="1">
          <mxGeometry width="50" height="50" relative="1" as="geometry">
            <mxPoint x="166.5" y="2065" as="sourcePoint" />
            <mxPoint x="656.5" y="2065" as="targetPoint" />
          </mxGeometry>
        </mxCell>
        <mxCell id="xvpdCFGPxGT2FbzmjJ1S-51" value="OS" style="text;html=1;strokeColor=none;fillColor=none;align=center;verticalAlign=middle;whiteSpace=wrap;rounded=0;" vertex="1" parent="1">
          <mxGeometry x="407.3" y="2110" width="60" height="30" as="geometry" />
        </mxCell>
        <mxCell id="xvpdCFGPxGT2FbzmjJ1S-52" value="" style="rounded=0;whiteSpace=wrap;html=1;strokeColor=#6c8ebf;strokeWidth=5;fillColor=#dae8fc;" vertex="1" parent="1">
          <mxGeometry x="346.5" y="1680" width="290" height="270" as="geometry" />
        </mxCell>
        <mxCell id="xvpdCFGPxGT2FbzmjJ1S-53" value="HTTP&amp;nbsp;" style="text;html=1;strokeColor=none;fillColor=none;align=center;verticalAlign=middle;whiteSpace=wrap;rounded=0;" vertex="1" parent="1">
          <mxGeometry x="261.75" y="1660" width="60" height="30" as="geometry" />
        </mxCell>
        <mxCell id="xvpdCFGPxGT2FbzmjJ1S-54" value="Database" style="rounded=0;whiteSpace=wrap;html=1;strokeColor=#6c8ebf;strokeWidth=5;fillColor=#dae8fc;" vertex="1" parent="1">
          <mxGeometry x="345.01" y="1985" width="292.97" height="70" as="geometry" />
        </mxCell>
        <mxCell id="xvpdCFGPxGT2FbzmjJ1S-55" value="DB SQL" style="text;html=1;strokeColor=none;fillColor=none;align=center;verticalAlign=middle;whiteSpace=wrap;rounded=0;" vertex="1" parent="1">
          <mxGeometry x="340.52" y="1955" width="60" height="30" as="geometry" />
        </mxCell>
        <mxCell id="xvpdCFGPxGT2FbzmjJ1S-56" value="" style="rounded=0;whiteSpace=wrap;html=1;strokeColor=#FFCC99;strokeWidth=5;fillColor=none;" vertex="1" parent="1">
          <mxGeometry x="136.5" y="1790" width="100.05" height="390" as="geometry" />
        </mxCell>
        <mxCell id="xvpdCFGPxGT2FbzmjJ1S-57" value="Firewall" style="text;html=1;strokeColor=none;fillColor=none;align=center;verticalAlign=middle;whiteSpace=wrap;rounded=0;" vertex="1" parent="1">
          <mxGeometry x="176.5" y="1750" width="60" height="30" as="geometry" />
        </mxCell>
        <mxCell id="xvpdCFGPxGT2FbzmjJ1S-58" value="Port 445" style="rounded=0;whiteSpace=wrap;html=1;strokeColor=#6c8ebf;strokeWidth=5;fillColor=#dae8fc;" vertex="1" parent="1">
          <mxGeometry x="216.1" y="2083" width="70.4" height="20" as="geometry" />
        </mxCell>
        <mxCell id="xvpdCFGPxGT2FbzmjJ1S-59" value="Port 135" style="rounded=0;whiteSpace=wrap;html=1;strokeColor=#6c8ebf;strokeWidth=5;fillColor=#dae8fc;" vertex="1" parent="1">
          <mxGeometry x="216.9" y="2115" width="70.4" height="20" as="geometry" />
        </mxCell>
        <mxCell id="xvpdCFGPxGT2FbzmjJ1S-60" value="Port 137" style="rounded=0;whiteSpace=wrap;html=1;strokeColor=#6c8ebf;strokeWidth=5;fillColor=#dae8fc;" vertex="1" parent="1">
          <mxGeometry x="216.9" y="2147" width="70.4" height="20" as="geometry" />
        </mxCell>
        <mxCell id="xvpdCFGPxGT2FbzmjJ1S-61" value="Port 1443" style="rounded=0;whiteSpace=wrap;html=1;strokeColor=#6c8ebf;strokeWidth=5;fillColor=#dae8fc;" vertex="1" parent="1">
          <mxGeometry x="215.01" y="1995" width="130" height="50" as="geometry" />
        </mxCell>
        <mxCell id="xvpdCFGPxGT2FbzmjJ1S-62" value="Port 443" style="rounded=0;whiteSpace=wrap;html=1;strokeColor=#6c8ebf;strokeWidth=5;fillColor=#dae8fc;" vertex="1" parent="1">
          <mxGeometry x="216.1" y="1880" width="130.4" height="50" as="geometry" />
        </mxCell>
        <mxCell id="xvpdCFGPxGT2FbzmjJ1S-63" value="Port 80" style="rounded=0;whiteSpace=wrap;html=1;strokeColor=#6c8ebf;strokeWidth=5;fillColor=#dae8fc;" vertex="1" parent="1">
          <mxGeometry x="216.9" y="1810" width="130.4" height="50" as="geometry" />
        </mxCell>
        <mxCell id="xvpdCFGPxGT2FbzmjJ1S-64" value="Port 80" style="rounded=0;whiteSpace=wrap;html=1;strokeColor=#6c8ebf;strokeWidth=5;fillColor=#dae8fc;" vertex="1" parent="1">
          <mxGeometry x="116.5" y="1810" width="80" height="50" as="geometry" />
        </mxCell>
        <mxCell id="xvpdCFGPxGT2FbzmjJ1S-65" value="Port 443" style="rounded=0;whiteSpace=wrap;html=1;strokeColor=#6c8ebf;strokeWidth=5;fillColor=#dae8fc;" vertex="1" parent="1">
          <mxGeometry x="116.5" y="1880" width="80" height="50" as="geometry" />
        </mxCell>
        <mxCell id="xvpdCFGPxGT2FbzmjJ1S-66" value="" style="verticalLabelPosition=bottom;verticalAlign=top;html=1;shadow=0;dashed=0;strokeWidth=1;shape=mxgraph.ios.iDeleteIcon;fillColor=#e8878E;fillColor2=#BD1421;strokeColor=#ffffff;sketch=0;" vertex="1" parent="1">
          <mxGeometry x="131.5" y="2000" width="50" height="40" as="geometry" />
        </mxCell>
        <mxCell id="xvpdCFGPxGT2FbzmjJ1S-67" value="" style="rounded=0;whiteSpace=wrap;html=1;strokeColor=#d6b656;strokeWidth=5;fillColor=#fff2cc;" vertex="1" parent="1">
          <mxGeometry x="356.5" y="1690" width="270" height="250" as="geometry" />
        </mxCell>
        <mxCell id="xvpdCFGPxGT2FbzmjJ1S-68" value="Backend code&amp;nbsp;" style="text;html=1;strokeColor=none;fillColor=none;align=center;verticalAlign=middle;whiteSpace=wrap;rounded=0;" vertex="1" parent="1">
          <mxGeometry x="362" y="1769.5" width="94.5" height="20" as="geometry" />
        </mxCell>
        <mxCell id="xvpdCFGPxGT2FbzmjJ1S-69" value="Data Access&lt;br&gt;.Net,java,python,nodeJS" style="rounded=0;whiteSpace=wrap;html=1;strokeColor=#1153D7;strokeWidth=5;fillColor=#ffe6cc;" vertex="1" parent="1">
          <mxGeometry x="366.5" y="1890" width="250" height="40" as="geometry" />
        </mxCell>
        <mxCell id="xvpdCFGPxGT2FbzmjJ1S-70" value="Business Logic&lt;br&gt;.Net,java,python,nodeJS" style="rounded=0;whiteSpace=wrap;html=1;strokeColor=#1153D7;strokeWidth=5;fillColor=#ffe6cc;" vertex="1" parent="1">
          <mxGeometry x="366.5" y="1840" width="250" height="40" as="geometry" />
        </mxCell>
        <mxCell id="xvpdCFGPxGT2FbzmjJ1S-71" value="Presentation&lt;br&gt;.Net,java,python,nodeJS" style="rounded=0;whiteSpace=wrap;html=1;strokeColor=#1153D7;strokeWidth=5;fillColor=#ffe6cc;" vertex="1" parent="1">
          <mxGeometry x="366.5" y="1790" width="250.25" height="40" as="geometry" />
        </mxCell>
        <mxCell id="xvpdCFGPxGT2FbzmjJ1S-72" value="Client Side Code&lt;br&gt;HTML,Java Script,css" style="rounded=0;whiteSpace=wrap;html=1;strokeColor=#1153D7;strokeWidth=5;fillColor=#ffe6cc;" vertex="1" parent="1">
          <mxGeometry x="367.5" y="1717.5" width="248.25" height="50" as="geometry" />
        </mxCell>
        <mxCell id="xvpdCFGPxGT2FbzmjJ1S-73" value="Frontend code" style="text;html=1;strokeColor=none;fillColor=none;align=center;verticalAlign=middle;whiteSpace=wrap;rounded=0;" vertex="1" parent="1">
          <mxGeometry x="357.24" y="1690" width="99.78" height="20" as="geometry" />
        </mxCell>
        <mxCell id="xvpdCFGPxGT2FbzmjJ1S-74" style="edgeStyle=orthogonalEdgeStyle;rounded=0;orthogonalLoop=1;jettySize=auto;html=1;entryX=-0.004;entryY=0.653;entryDx=0;entryDy=0;entryPerimeter=0;strokeWidth=3;" edge="1" parent="1" source="xvpdCFGPxGT2FbzmjJ1S-75" target="xvpdCFGPxGT2FbzmjJ1S-64">
          <mxGeometry relative="1" as="geometry" />
        </mxCell>
        <mxCell id="xvpdCFGPxGT2FbzmjJ1S-75" value="Actor" style="shape=umlActor;verticalLabelPosition=bottom;verticalAlign=top;html=1;outlineConnect=0;strokeColor=#1153D7;strokeWidth=5;fillColor=none;" vertex="1" parent="1">
          <mxGeometry x="86.5" y="1650" width="30" height="60" as="geometry" />
        </mxCell>
        <mxCell id="xvpdCFGPxGT2FbzmjJ1S-76" style="edgeStyle=orthogonalEdgeStyle;rounded=0;orthogonalLoop=1;jettySize=auto;html=1;entryX=-0.006;entryY=0.204;entryDx=0;entryDy=0;entryPerimeter=0;strokeWidth=1;" edge="1" parent="1" source="xvpdCFGPxGT2FbzmjJ1S-78" target="xvpdCFGPxGT2FbzmjJ1S-52">
          <mxGeometry relative="1" as="geometry" />
        </mxCell>
        <mxCell id="xvpdCFGPxGT2FbzmjJ1S-77" value="" style="edgeStyle=orthogonalEdgeStyle;rounded=0;orthogonalLoop=1;jettySize=auto;html=1;strokeWidth=1;" edge="1" parent="1" source="xvpdCFGPxGT2FbzmjJ1S-78" target="xvpdCFGPxGT2FbzmjJ1S-63">
          <mxGeometry relative="1" as="geometry" />
        </mxCell>
        <mxCell id="xvpdCFGPxGT2FbzmjJ1S-78" value="IIS&lt;br&gt;Apache&lt;br&gt;Tomcat&lt;br&gt;WAS" style="text;html=1;strokeColor=#6c8ebf;fillColor=#dae8fc;align=center;verticalAlign=middle;whiteSpace=wrap;rounded=0;" vertex="1" parent="1">
          <mxGeometry x="261.75" y="1690" width="60" height="90" as="geometry" />
        </mxCell>
        <mxCell id="xvpdCFGPxGT2FbzmjJ1S-79" value="" style="endArrow=classic;html=1;rounded=0;strokeWidth=3;exitX=0.933;exitY=0;exitDx=0;exitDy=0;exitPerimeter=0;" edge="1" parent="1" source="xvpdCFGPxGT2FbzmjJ1S-71">
          <mxGeometry width="50" height="50" relative="1" as="geometry">
            <mxPoint x="594" y="1790" as="sourcePoint" />
            <mxPoint x="600" y="1930" as="targetPoint" />
            <Array as="points" />
          </mxGeometry>
        </mxCell>
        <mxCell id="xvpdCFGPxGT2FbzmjJ1S-80" style="edgeStyle=orthogonalEdgeStyle;rounded=0;orthogonalLoop=1;jettySize=auto;html=1;strokeWidth=3;" edge="1" parent="1" target="xvpdCFGPxGT2FbzmjJ1S-61">
          <mxGeometry relative="1" as="geometry">
            <mxPoint x="600" y="1930" as="sourcePoint" />
            <Array as="points">
              <mxPoint x="600" y="1930" />
              <mxPoint x="600" y="1960" />
              <mxPoint x="281" y="1960" />
            </Array>
          </mxGeometry>
        </mxCell>
        <mxCell id="xvpdCFGPxGT2FbzmjJ1S-81" value="" style="verticalLabelPosition=bottom;verticalAlign=top;html=1;shadow=0;dashed=0;strokeWidth=1;shape=mxgraph.ios.iDeleteIcon;fillColor=#e8878E;fillColor2=#BD1421;strokeColor=#ffffff;sketch=0;" vertex="1" parent="1">
          <mxGeometry x="126.5" y="2103" width="50" height="40" as="geometry" />
        </mxCell>
      </root>
    </mxGraphModel>
  </diagram>
  <diagram id="NkgCwz7UdaWaS5FSNv4m" name="Why MS">
    <mxGraphModel dx="1290" dy="-532" grid="1" gridSize="10" guides="1" tooltips="1" connect="1" arrows="1" fold="1" page="1" pageScale="1" pageWidth="850" pageHeight="1100" math="0" shadow="0">
      <root>
        <mxCell id="0" />
        <mxCell id="1" parent="0" />
        <mxCell id="G8LGQOxDN1PvQnqZob23-1" value="&lt;h1&gt;Why Contaniers&amp;nbsp;&amp;nbsp;&lt;/h1&gt;&lt;div&gt;&lt;span style=&quot;box-sizing: inherit ; vertical-align: baseline ; font-size: 16px ; border: 0px ; padding: 0px ; margin: 0px ; background: 0px 0px rgb(255 , 255 , 255) ; font-weight: 700 ; font-family: &amp;quot;helvetica neue&amp;quot; , &amp;quot;arial&amp;quot; , sans-serif&quot;&gt;“Lift and shift” existing applications into modern cloud architectures&lt;/span&gt;&lt;br&gt;&lt;/div&gt;&lt;p&gt;&lt;font style=&quot;font-size: 14px&quot;&gt;1-&amp;nbsp;&lt;/font&gt;&lt;span style=&quot;font-size: 14px&quot;&gt;Development&lt;/span&gt;&lt;/p&gt;&lt;p&gt;&lt;span&gt;&lt;span style=&quot;font-size: 14px&quot;&gt;&amp;nbsp; &amp;nbsp; &amp;nbsp;1- More Coherent &amp;amp; Less Coupling&lt;/span&gt;&lt;/span&gt;&lt;/p&gt;&lt;p&gt;&lt;span&gt;&lt;span style=&quot;font-size: 14px&quot;&gt;&amp;nbsp; &amp;nbsp; &amp;nbsp;2- Easy Maintenance&lt;/span&gt;&lt;/span&gt;&lt;/p&gt;&lt;p&gt;&lt;span&gt;&lt;span style=&quot;font-size: 14px&quot;&gt;&amp;nbsp; &amp;nbsp; &amp;nbsp;3- Fast Development&amp;nbsp;&amp;nbsp;&lt;/span&gt;&lt;/span&gt;&lt;/p&gt;&lt;br&gt;&lt;p&gt;&lt;span style=&quot;font-size: 14px&quot;&gt;2-Releases&amp;nbsp;&lt;/span&gt;&lt;/p&gt;&lt;p&gt;&lt;span style=&quot;font-size: 14px&quot;&gt;&amp;nbsp; &amp;nbsp; 1- Release as one package&lt;/span&gt;&lt;/p&gt;&lt;p&gt;&lt;span style=&quot;font-size: 14px&quot;&gt;&amp;nbsp; &amp;nbsp; 2- Easy Delivery&lt;/span&gt;&lt;/p&gt;&lt;p&gt;&lt;span style=&quot;font-size: 14px&quot;&gt;&amp;nbsp; &amp;nbsp; 3- Version Controlled&amp;nbsp;&lt;/span&gt;&lt;/p&gt;&lt;p&gt;&lt;span style=&quot;font-size: 14px&quot;&gt;&lt;br&gt;&lt;/span&gt;&lt;/p&gt;&lt;p&gt;&lt;span style=&quot;font-size: 14px&quot;&gt;3-&amp;nbsp; Deployment&amp;nbsp;&lt;/span&gt;&lt;/p&gt;&lt;p&gt;&lt;span style=&quot;font-size: 14px&quot;&gt;&amp;nbsp; &amp;nbsp; 1- Segragation to handle deployment&lt;/span&gt;&lt;/p&gt;&lt;p&gt;&lt;span style=&quot;font-size: 14px&quot;&gt;&amp;nbsp; &amp;nbsp; 2- Less overhead on Developer&amp;nbsp;&lt;/span&gt;&lt;/p&gt;&lt;p&gt;&lt;span style=&quot;font-size: 14px&quot;&gt;&amp;nbsp; &amp;nbsp; 3- Cross Platform&lt;/span&gt;&lt;/p&gt;&lt;p&gt;&lt;span style=&quot;font-size: 14px&quot;&gt;&amp;nbsp; &amp;nbsp; 4- Easy Troubleshooting&lt;/span&gt;&lt;/p&gt;&lt;p&gt;&lt;span style=&quot;font-size: 14px&quot;&gt;&amp;nbsp; &amp;nbsp; 5- Stable Integration&amp;nbsp;&lt;/span&gt;&lt;/p&gt;&lt;p&gt;&lt;span style=&quot;font-size: 14px&quot;&gt;&amp;nbsp; &amp;nbsp; 6- Less Configuration&lt;/span&gt;&lt;/p&gt;&lt;p&gt;&lt;/p&gt;&lt;br&gt;&lt;p&gt;&lt;span style=&quot;font-size: 14px&quot;&gt;4- Upgarde/&lt;/span&gt;&lt;/p&gt;&lt;p&gt;&lt;span style=&quot;font-size: 14px&quot;&gt;&amp;nbsp; &amp;nbsp;1- As New Deployment with having current version running&amp;nbsp;&lt;/span&gt;&lt;/p&gt;&lt;p&gt;&lt;span style=&quot;font-size: 14px&quot;&gt;&lt;br&gt;&lt;/span&gt;&lt;/p&gt;&lt;p&gt;&lt;span style=&quot;font-size: 14px&quot;&gt;5- Scalability&lt;/span&gt;&lt;/p&gt;&lt;p&gt;&lt;span style=&quot;font-size: 14px&quot;&gt;&amp;nbsp; &amp;nbsp; 1- You can Scale Resources depending on demand Automaticlly&lt;/span&gt;&lt;/p&gt;&lt;p&gt;&lt;span style=&quot;font-size: 14px&quot;&gt;&lt;br&gt;&lt;/span&gt;&lt;/p&gt;&lt;p&gt;&lt;span style=&quot;font-size: 14px&quot;&gt;6- Availability&lt;/span&gt;&lt;/p&gt;&lt;p&gt;&lt;span style=&quot;font-size: 14px&quot;&gt;&amp;nbsp; &amp;nbsp; &amp;nbsp; &amp;nbsp;1- Service Availability&amp;nbsp; (Not OS Availabily and Not DR Availabilty)&lt;/span&gt;&lt;/p&gt;&lt;p&gt;&lt;span style=&quot;font-size: 14px&quot;&gt;&amp;nbsp;7- Pricing Per Requests / Process&amp;nbsp;&lt;/span&gt;&lt;/p&gt;&lt;p&gt;&lt;br style=&quot;color: rgb(0, 0, 0); font-family: helvetica; font-size: 12px; font-style: normal; font-weight: 400; letter-spacing: normal; text-align: left; text-indent: 0px; text-transform: none; word-spacing: 0px; background-color: rgb(248, 249, 250);&quot;&gt;&#xa;&#xa;&lt;/p&gt;" style="text;whiteSpace=wrap;html=1;" vertex="1" parent="1">
          <mxGeometry x="60" y="1200" width="550" height="880" as="geometry" />
        </mxCell>
      </root>
    </mxGraphModel>
  </diagram>
  <diagram id="2S1h_9szkfVIeSbVGPBG" name="Microservices">
    <mxGraphModel dx="1290" dy="-532" grid="1" gridSize="10" guides="1" tooltips="1" connect="1" arrows="1" fold="1" page="1" pageScale="1" pageWidth="850" pageHeight="1100" math="0" shadow="0">
      <root>
        <mxCell id="0" />
        <mxCell id="1" parent="0" />
        <mxCell id="bhYskNa-KffHq_CfFQIh-1" value="" style="rounded=0;whiteSpace=wrap;html=1;strokeWidth=6;" vertex="1" parent="1">
          <mxGeometry x="122" y="1680" width="638" height="510" as="geometry" />
        </mxCell>
        <mxCell id="bhYskNa-KffHq_CfFQIh-2" value="" style="rounded=0;whiteSpace=wrap;html=1;strokeColor=#d6b656;strokeWidth=5;fillColor=#fff2cc;" vertex="1" parent="1">
          <mxGeometry x="412" y="1730" width="180" height="307" as="geometry" />
        </mxCell>
        <mxCell id="bhYskNa-KffHq_CfFQIh-3" value="" style="endArrow=none;html=1;rounded=0;exitX=0;exitY=0.75;exitDx=0;exitDy=0;entryX=1.002;entryY=0.862;entryDx=0;entryDy=0;strokeWidth=3;entryPerimeter=0;" edge="1" parent="1" target="bhYskNa-KffHq_CfFQIh-1">
          <mxGeometry width="50" height="50" relative="1" as="geometry">
            <mxPoint x="122" y="2120" as="sourcePoint" />
            <mxPoint x="612" y="2120" as="targetPoint" />
          </mxGeometry>
        </mxCell>
        <mxCell id="bhYskNa-KffHq_CfFQIh-4" value="OS" style="text;html=1;strokeColor=none;fillColor=none;align=center;verticalAlign=middle;whiteSpace=wrap;rounded=0;" vertex="1" parent="1">
          <mxGeometry x="362.8" y="2140" width="60" height="30" as="geometry" />
        </mxCell>
        <mxCell id="bhYskNa-KffHq_CfFQIh-5" value="" style="rounded=0;whiteSpace=wrap;html=1;strokeColor=#6c8ebf;strokeWidth=5;fillColor=#dae8fc;" vertex="1" parent="1">
          <mxGeometry x="422" y="1760" width="160" height="270" as="geometry" />
        </mxCell>
        <mxCell id="bhYskNa-KffHq_CfFQIh-6" value="" style="rounded=0;whiteSpace=wrap;html=1;strokeColor=#FFCC99;strokeWidth=5;fillColor=none;" vertex="1" parent="1">
          <mxGeometry x="92" y="1810" width="70" height="360" as="geometry" />
        </mxCell>
        <mxCell id="bhYskNa-KffHq_CfFQIh-7" value="Firewall" style="text;html=1;strokeColor=none;fillColor=none;align=center;verticalAlign=middle;whiteSpace=wrap;rounded=0;" vertex="1" parent="1">
          <mxGeometry x="122" y="1780" width="60" height="30" as="geometry" />
        </mxCell>
        <mxCell id="bhYskNa-KffHq_CfFQIh-8" value="Port 445" style="rounded=0;whiteSpace=wrap;html=1;strokeColor=#6c8ebf;strokeWidth=5;fillColor=#dae8fc;" vertex="1" parent="1">
          <mxGeometry x="171.60000000000002" y="2138" width="70.4" height="20" as="geometry" />
        </mxCell>
        <mxCell id="bhYskNa-KffHq_CfFQIh-9" value="Web Server" style="text;html=1;strokeColor=none;fillColor=none;align=center;verticalAlign=middle;whiteSpace=wrap;rounded=0;" vertex="1" parent="1">
          <mxGeometry x="421.99999999999994" y="1755" width="89.2" height="30" as="geometry" />
        </mxCell>
        <mxCell id="bhYskNa-KffHq_CfFQIh-10" style="edgeStyle=orthogonalEdgeStyle;rounded=0;orthogonalLoop=1;jettySize=auto;html=1;strokeWidth=4;" edge="1" parent="1" source="bhYskNa-KffHq_CfFQIh-11">
          <mxGeometry relative="1" as="geometry">
            <mxPoint x="481" y="2120" as="targetPoint" />
          </mxGeometry>
        </mxCell>
        <mxCell id="bhYskNa-KffHq_CfFQIh-11" value="Contaniers Engine (Docker)" style="rounded=0;whiteSpace=wrap;html=1;strokeColor=#6c8ebf;strokeWidth=5;fillColor=#dae8fc;" vertex="1" parent="1">
          <mxGeometry x="212" y="2045" width="538" height="50" as="geometry" />
        </mxCell>
        <mxCell id="bhYskNa-KffHq_CfFQIh-12" value="Contanier" style="text;html=1;strokeColor=none;fillColor=none;align=center;verticalAlign=middle;whiteSpace=wrap;rounded=0;" vertex="1" parent="1">
          <mxGeometry x="412" y="1730" width="60" height="30" as="geometry" />
        </mxCell>
        <mxCell id="bhYskNa-KffHq_CfFQIh-13" value="" style="group" vertex="1" connectable="0" parent="1">
          <mxGeometry x="432" y="1780" width="142.27" height="215" as="geometry" />
        </mxCell>
        <mxCell id="bhYskNa-KffHq_CfFQIh-14" value="Presentation&lt;br&gt;.Net,java,python,nodeJS" style="rounded=0;whiteSpace=wrap;html=1;strokeColor=#1153D7;strokeWidth=5;fillColor=#ffe6cc;" vertex="1" parent="bhYskNa-KffHq_CfFQIh-13">
          <mxGeometry x="1.1391976850200083" y="82.34042553191489" width="141.13080231498003" height="36.59574468085106" as="geometry" />
        </mxCell>
        <mxCell id="bhYskNa-KffHq_CfFQIh-15" value="" style="group" vertex="1" connectable="0" parent="bhYskNa-KffHq_CfFQIh-13">
          <mxGeometry width="142.12901018749753" height="215" as="geometry" />
        </mxCell>
        <mxCell id="bhYskNa-KffHq_CfFQIh-16" value="Data Access&lt;br&gt;.Net,java,python,nodeJS" style="rounded=0;whiteSpace=wrap;html=1;strokeColor=#1153D7;strokeWidth=5;fillColor=#ffe6cc;" vertex="1" parent="bhYskNa-KffHq_CfFQIh-15">
          <mxGeometry x="0.6429135450112899" y="178.40425531914894" width="140.98981250247758" height="36.59574468085106" as="geometry" />
        </mxCell>
        <mxCell id="bhYskNa-KffHq_CfFQIh-17" value="Business Logic&lt;br&gt;.Net,java,python,nodeJS" style="rounded=0;whiteSpace=wrap;html=1;strokeColor=#1153D7;strokeWidth=5;fillColor=#ffe6cc;" vertex="1" parent="bhYskNa-KffHq_CfFQIh-15">
          <mxGeometry x="1.1391976850200083" y="132.6595744680851" width="140.98981250247758" height="36.59574468085106" as="geometry" />
        </mxCell>
        <mxCell id="bhYskNa-KffHq_CfFQIh-18" value="Client Side Code&lt;br&gt;HTML,Java Script,css" style="rounded=0;whiteSpace=wrap;html=1;strokeColor=#1153D7;strokeWidth=5;fillColor=#ffe6cc;" vertex="1" parent="bhYskNa-KffHq_CfFQIh-15">
          <mxGeometry x="2.1261263725373514" y="22.872340425531913" width="140.0028838149602" height="36.59574468085106" as="geometry" />
        </mxCell>
        <mxCell id="bhYskNa-KffHq_CfFQIh-19" value="Frontend code" style="text;html=1;strokeColor=none;fillColor=none;align=center;verticalAlign=middle;whiteSpace=wrap;rounded=0;" vertex="1" parent="bhYskNa-KffHq_CfFQIh-15">
          <mxGeometry x="1.14" width="118.86" height="18.29787234042553" as="geometry" />
        </mxCell>
        <mxCell id="bhYskNa-KffHq_CfFQIh-20" value="Backend code&amp;nbsp;" style="text;html=1;strokeColor=none;fillColor=none;align=center;verticalAlign=middle;whiteSpace=wrap;rounded=0;" vertex="1" parent="bhYskNa-KffHq_CfFQIh-15">
          <mxGeometry y="59.46808510638298" width="130" height="18.29787234042553" as="geometry" />
        </mxCell>
        <mxCell id="bhYskNa-KffHq_CfFQIh-21" value="Port 80" style="rounded=0;whiteSpace=wrap;html=1;strokeColor=#6c8ebf;strokeWidth=5;fillColor=#dae8fc;" vertex="1" parent="1">
          <mxGeometry x="122" y="1900" width="58" height="20" as="geometry" />
        </mxCell>
        <mxCell id="bhYskNa-KffHq_CfFQIh-22" style="edgeStyle=orthogonalEdgeStyle;rounded=0;orthogonalLoop=1;jettySize=auto;html=1;entryX=1;entryY=0.5;entryDx=0;entryDy=0;strokeWidth=4;" edge="1" parent="1" source="bhYskNa-KffHq_CfFQIh-23" target="bhYskNa-KffHq_CfFQIh-39">
          <mxGeometry relative="1" as="geometry">
            <Array as="points">
              <mxPoint x="210" y="1720" />
              <mxPoint x="210" y="1950" />
            </Array>
          </mxGeometry>
        </mxCell>
        <mxCell id="bhYskNa-KffHq_CfFQIh-23" value="Port 5050" style="rounded=0;whiteSpace=wrap;html=1;strokeColor=#6c8ebf;strokeWidth=5;fillColor=#dae8fc;" vertex="1" parent="1">
          <mxGeometry x="277.93" y="1710" width="70.4" height="20" as="geometry" />
        </mxCell>
        <mxCell id="bhYskNa-KffHq_CfFQIh-24" value="&lt;h1&gt;Multi container, Single Node&lt;br&gt;&lt;/h1&gt;" style="text;html=1;strokeColor=none;fillColor=none;spacing=5;spacingTop=-20;whiteSpace=wrap;overflow=hidden;rounded=0;" vertex="1" parent="1">
          <mxGeometry x="210" y="1640" width="370.4" height="50" as="geometry" />
        </mxCell>
        <mxCell id="bhYskNa-KffHq_CfFQIh-25" value="" style="rounded=0;whiteSpace=wrap;html=1;strokeColor=#d6b656;strokeWidth=5;fillColor=#fff2cc;" vertex="1" parent="1">
          <mxGeometry x="222.4" y="1730" width="180" height="307" as="geometry" />
        </mxCell>
        <mxCell id="bhYskNa-KffHq_CfFQIh-26" value="" style="rounded=0;whiteSpace=wrap;html=1;strokeColor=#6c8ebf;strokeWidth=5;fillColor=#dae8fc;" vertex="1" parent="1">
          <mxGeometry x="232" y="1755" width="160" height="270" as="geometry" />
        </mxCell>
        <mxCell id="bhYskNa-KffHq_CfFQIh-27" value="Contanier" style="text;html=1;strokeColor=none;fillColor=none;align=center;verticalAlign=middle;whiteSpace=wrap;rounded=0;" vertex="1" parent="1">
          <mxGeometry x="232" y="1725" width="60" height="30" as="geometry" />
        </mxCell>
        <mxCell id="bhYskNa-KffHq_CfFQIh-28" value="" style="group" vertex="1" connectable="0" parent="1">
          <mxGeometry x="242" y="1777" width="142.27" height="215" as="geometry" />
        </mxCell>
        <mxCell id="bhYskNa-KffHq_CfFQIh-29" value="Presentation&lt;br&gt;.Net,java,python,nodeJS" style="rounded=0;whiteSpace=wrap;html=1;strokeColor=#1153D7;strokeWidth=5;fillColor=#ffe6cc;" vertex="1" parent="bhYskNa-KffHq_CfFQIh-28">
          <mxGeometry x="1.1391976850200083" y="82.34042553191489" width="141.13080231498003" height="36.59574468085106" as="geometry" />
        </mxCell>
        <mxCell id="bhYskNa-KffHq_CfFQIh-30" value="" style="group" vertex="1" connectable="0" parent="bhYskNa-KffHq_CfFQIh-28">
          <mxGeometry width="142.12901018749753" height="215" as="geometry" />
        </mxCell>
        <mxCell id="bhYskNa-KffHq_CfFQIh-31" value="Data Access&lt;br&gt;.Net,java,python,nodeJS" style="rounded=0;whiteSpace=wrap;html=1;strokeColor=#1153D7;strokeWidth=5;fillColor=#ffe6cc;" vertex="1" parent="bhYskNa-KffHq_CfFQIh-30">
          <mxGeometry x="0.6429135450112899" y="178.40425531914894" width="140.98981250247758" height="36.59574468085106" as="geometry" />
        </mxCell>
        <mxCell id="bhYskNa-KffHq_CfFQIh-32" value="Business Logic&lt;br&gt;.Net,java,python,nodeJS" style="rounded=0;whiteSpace=wrap;html=1;strokeColor=#1153D7;strokeWidth=5;fillColor=#ffe6cc;" vertex="1" parent="bhYskNa-KffHq_CfFQIh-30">
          <mxGeometry x="1.1391976850200083" y="132.6595744680851" width="140.98981250247758" height="36.59574468085106" as="geometry" />
        </mxCell>
        <mxCell id="bhYskNa-KffHq_CfFQIh-33" value="Client Side Code&lt;br&gt;HTML,Java Script,css" style="rounded=0;whiteSpace=wrap;html=1;strokeColor=#1153D7;strokeWidth=5;fillColor=#ffe6cc;" vertex="1" parent="bhYskNa-KffHq_CfFQIh-30">
          <mxGeometry x="2.1261263725373514" y="22.872340425531913" width="140.0028838149602" height="36.59574468085106" as="geometry" />
        </mxCell>
        <mxCell id="bhYskNa-KffHq_CfFQIh-34" value="Frontend code" style="text;html=1;strokeColor=none;fillColor=none;align=center;verticalAlign=middle;whiteSpace=wrap;rounded=0;" vertex="1" parent="bhYskNa-KffHq_CfFQIh-30">
          <mxGeometry x="1.14" width="118.86" height="18.29787234042553" as="geometry" />
        </mxCell>
        <mxCell id="bhYskNa-KffHq_CfFQIh-35" value="Backend code&amp;nbsp;" style="text;html=1;strokeColor=none;fillColor=none;align=center;verticalAlign=middle;whiteSpace=wrap;rounded=0;" vertex="1" parent="bhYskNa-KffHq_CfFQIh-30">
          <mxGeometry y="59.46808510638298" width="130" height="18.29787234042553" as="geometry" />
        </mxCell>
        <mxCell id="bhYskNa-KffHq_CfFQIh-36" value="Web Server" style="text;html=1;strokeColor=none;fillColor=none;align=center;verticalAlign=middle;whiteSpace=wrap;rounded=0;" vertex="1" parent="1">
          <mxGeometry x="231.99999999999994" y="1755" width="89.2" height="30" as="geometry" />
        </mxCell>
        <mxCell id="bhYskNa-KffHq_CfFQIh-37" style="edgeStyle=orthogonalEdgeStyle;rounded=0;orthogonalLoop=1;jettySize=auto;html=1;entryX=1;entryY=0.5;entryDx=0;entryDy=0;strokeWidth=4;" edge="1" parent="1">
          <mxGeometry relative="1" as="geometry">
            <mxPoint x="500.2857142857142" y="1710" as="sourcePoint" />
            <mxPoint x="183" y="1910" as="targetPoint" />
            <Array as="points">
              <mxPoint x="500" y="1700" />
              <mxPoint x="195" y="1700" />
              <mxPoint x="195" y="1910" />
            </Array>
          </mxGeometry>
        </mxCell>
        <mxCell id="bhYskNa-KffHq_CfFQIh-38" value="Port 8080" style="rounded=0;whiteSpace=wrap;html=1;strokeColor=#6c8ebf;strokeWidth=5;fillColor=#dae8fc;" vertex="1" parent="1">
          <mxGeometry x="462.05000000000007" y="1710" width="70.4" height="20" as="geometry" />
        </mxCell>
        <mxCell id="bhYskNa-KffHq_CfFQIh-39" value="Port 50" style="rounded=0;whiteSpace=wrap;html=1;strokeColor=#6c8ebf;strokeWidth=5;fillColor=#dae8fc;" vertex="1" parent="1">
          <mxGeometry x="122" y="1940" width="58" height="20" as="geometry" />
        </mxCell>
        <mxCell id="bhYskNa-KffHq_CfFQIh-40" value="" style="rounded=0;whiteSpace=wrap;html=1;strokeColor=#d6b656;strokeWidth=5;fillColor=#fff2cc;" vertex="1" parent="1">
          <mxGeometry x="600" y="1730" width="150" height="87" as="geometry" />
        </mxCell>
        <mxCell id="bhYskNa-KffHq_CfFQIh-41" value="" style="rounded=0;whiteSpace=wrap;html=1;strokeColor=#d6b656;strokeWidth=5;fillColor=#fff2cc;" vertex="1" parent="1">
          <mxGeometry x="600" y="1833" width="150" height="87" as="geometry" />
        </mxCell>
        <mxCell id="bhYskNa-KffHq_CfFQIh-42" value="" style="rounded=0;whiteSpace=wrap;html=1;strokeColor=#d6b656;strokeWidth=5;fillColor=#fff2cc;" vertex="1" parent="1">
          <mxGeometry x="600" y="1928" width="150" height="87" as="geometry" />
        </mxCell>
        <mxCell id="bhYskNa-KffHq_CfFQIh-43" value="Contanier" style="text;html=1;strokeColor=none;fillColor=none;align=center;verticalAlign=middle;whiteSpace=wrap;rounded=0;" vertex="1" parent="1">
          <mxGeometry x="640" y="1758.5" width="60" height="30" as="geometry" />
        </mxCell>
        <mxCell id="bhYskNa-KffHq_CfFQIh-44" value="Contanier" style="text;html=1;strokeColor=none;fillColor=none;align=center;verticalAlign=middle;whiteSpace=wrap;rounded=0;" vertex="1" parent="1">
          <mxGeometry x="640" y="1850" width="60" height="30" as="geometry" />
        </mxCell>
        <mxCell id="bhYskNa-KffHq_CfFQIh-45" value="Contanier" style="text;html=1;strokeColor=none;fillColor=none;align=center;verticalAlign=middle;whiteSpace=wrap;rounded=0;" vertex="1" parent="1">
          <mxGeometry x="640" y="1956.5" width="60" height="30" as="geometry" />
        </mxCell>
        <mxCell id="bhYskNa-KffHq_CfFQIh-46" value="Kernal bin/lib" style="rounded=0;whiteSpace=wrap;html=1;strokeColor=#b85450;strokeWidth=5;fillColor=#f8cecc;" vertex="1" parent="1">
          <mxGeometry x="244" y="1998" width="138" height="20" as="geometry" />
        </mxCell>
        <mxCell id="bhYskNa-KffHq_CfFQIh-47" value="Kernal bin/lib" style="rounded=0;whiteSpace=wrap;html=1;strokeColor=#b85450;strokeWidth=5;fillColor=#f8cecc;" vertex="1" parent="1">
          <mxGeometry x="433.27" y="2002" width="138" height="20" as="geometry" />
        </mxCell>
      </root>
    </mxGraphModel>
  </diagram>
  <diagram id="YJYkHw0qzORJKjDcxGg0" name="Microservices 1">
    <mxGraphModel dx="1290" dy="568" grid="1" gridSize="10" guides="1" tooltips="1" connect="1" arrows="1" fold="1" page="1" pageScale="1" pageWidth="850" pageHeight="1100" math="0" shadow="0">
      <root>
        <mxCell id="0" />
        <mxCell id="1" parent="0" />
        <mxCell id="I7XTmbxwMShyVWNgVzQ0-1" value="" style="rounded=0;whiteSpace=wrap;html=1;" vertex="1" parent="1">
          <mxGeometry x="20" y="405" width="340" height="300" as="geometry" />
        </mxCell>
        <mxCell id="I7XTmbxwMShyVWNgVzQ0-2" value="" style="rounded=0;whiteSpace=wrap;html=1;" vertex="1" parent="1">
          <mxGeometry x="40" y="445" width="300" height="240" as="geometry" />
        </mxCell>
        <mxCell id="I7XTmbxwMShyVWNgVzQ0-3" value="HTTP" style="text;html=1;strokeColor=none;fillColor=none;align=center;verticalAlign=middle;whiteSpace=wrap;rounded=0;" vertex="1" parent="1">
          <mxGeometry x="20" y="365" width="60" height="30" as="geometry" />
        </mxCell>
        <mxCell id="I7XTmbxwMShyVWNgVzQ0-4" value="Code" style="text;html=1;strokeColor=none;fillColor=none;align=center;verticalAlign=middle;whiteSpace=wrap;rounded=0;" vertex="1" parent="1">
          <mxGeometry x="40" y="415" width="60" height="30" as="geometry" />
        </mxCell>
        <mxCell id="I7XTmbxwMShyVWNgVzQ0-5" value="GUI (HTML/CSS/JS)" style="rounded=0;whiteSpace=wrap;html=1;" vertex="1" parent="1">
          <mxGeometry x="60" y="465" width="270" height="30" as="geometry" />
        </mxCell>
        <mxCell id="I7XTmbxwMShyVWNgVzQ0-6" value="Bussines" style="rounded=0;whiteSpace=wrap;html=1;" vertex="1" parent="1">
          <mxGeometry x="60" y="505" width="100" height="130" as="geometry" />
        </mxCell>
        <mxCell id="I7XTmbxwMShyVWNgVzQ0-7" style="edgeStyle=orthogonalEdgeStyle;rounded=0;orthogonalLoop=1;jettySize=auto;html=1;entryX=1;entryY=0.5;entryDx=0;entryDy=0;entryPerimeter=0;" edge="1" parent="1" source="I7XTmbxwMShyVWNgVzQ0-8" target="I7XTmbxwMShyVWNgVzQ0-9">
          <mxGeometry relative="1" as="geometry">
            <mxPoint x="430" y="875" as="targetPoint" />
          </mxGeometry>
        </mxCell>
        <mxCell id="I7XTmbxwMShyVWNgVzQ0-8" value="Datalayer" style="rounded=0;whiteSpace=wrap;html=1;" vertex="1" parent="1">
          <mxGeometry x="60" y="645" width="270" height="30" as="geometry" />
        </mxCell>
        <mxCell id="I7XTmbxwMShyVWNgVzQ0-9" value="DB" style="shape=cylinder3;whiteSpace=wrap;html=1;boundedLbl=1;backgroundOutline=1;size=15;" vertex="1" parent="1">
          <mxGeometry x="120" y="815" width="90" height="130" as="geometry" />
        </mxCell>
        <mxCell id="I7XTmbxwMShyVWNgVzQ0-10" value="Users" style="rounded=0;whiteSpace=wrap;html=1;" vertex="1" parent="1">
          <mxGeometry x="170" y="505" width="140" height="30" as="geometry" />
        </mxCell>
        <mxCell id="I7XTmbxwMShyVWNgVzQ0-11" value="Account" style="rounded=0;whiteSpace=wrap;html=1;" vertex="1" parent="1">
          <mxGeometry x="170" y="538" width="140" height="30" as="geometry" />
        </mxCell>
        <mxCell id="I7XTmbxwMShyVWNgVzQ0-12" value="Reporting" style="rounded=0;whiteSpace=wrap;html=1;" vertex="1" parent="1">
          <mxGeometry x="170" y="572" width="140" height="30" as="geometry" />
        </mxCell>
        <mxCell id="I7XTmbxwMShyVWNgVzQ0-13" value="Search" style="rounded=0;whiteSpace=wrap;html=1;" vertex="1" parent="1">
          <mxGeometry x="170" y="605" width="140" height="30" as="geometry" />
        </mxCell>
        <mxCell id="I7XTmbxwMShyVWNgVzQ0-14" value="" style="rounded=0;whiteSpace=wrap;html=1;" vertex="1" parent="1">
          <mxGeometry x="390" y="70" width="440" height="1020" as="geometry" />
        </mxCell>
        <mxCell id="I7XTmbxwMShyVWNgVzQ0-15" style="edgeStyle=orthogonalEdgeStyle;rounded=0;orthogonalLoop=1;jettySize=auto;html=1;entryX=0;entryY=0.5;entryDx=0;entryDy=0;" edge="1" parent="1" source="I7XTmbxwMShyVWNgVzQ0-16" target="I7XTmbxwMShyVWNgVzQ0-24">
          <mxGeometry relative="1" as="geometry" />
        </mxCell>
        <mxCell id="I7XTmbxwMShyVWNgVzQ0-16" value="" style="rounded=0;whiteSpace=wrap;html=1;" vertex="1" parent="1">
          <mxGeometry x="460" y="90" width="340" height="190" as="geometry" />
        </mxCell>
        <mxCell id="I7XTmbxwMShyVWNgVzQ0-17" value="" style="rounded=0;whiteSpace=wrap;html=1;" vertex="1" parent="1">
          <mxGeometry x="480" y="130" width="300" height="130" as="geometry" />
        </mxCell>
        <mxCell id="I7XTmbxwMShyVWNgVzQ0-18" value="Code" style="text;html=1;strokeColor=none;fillColor=none;align=center;verticalAlign=middle;whiteSpace=wrap;rounded=0;" vertex="1" parent="1">
          <mxGeometry x="480" y="90" width="60" height="30" as="geometry" />
        </mxCell>
        <mxCell id="I7XTmbxwMShyVWNgVzQ0-19" value="GUI (HTML/CSS/JS)" style="rounded=0;whiteSpace=wrap;html=1;" vertex="1" parent="1">
          <mxGeometry x="495" y="143" width="270" height="30" as="geometry" />
        </mxCell>
        <mxCell id="I7XTmbxwMShyVWNgVzQ0-20" value="Bussines" style="rounded=0;whiteSpace=wrap;html=1;" vertex="1" parent="1">
          <mxGeometry x="500" y="180" width="100" height="30" as="geometry" />
        </mxCell>
        <mxCell id="I7XTmbxwMShyVWNgVzQ0-21" value="Datalayer" style="rounded=0;whiteSpace=wrap;html=1;" vertex="1" parent="1">
          <mxGeometry x="500" y="220" width="270" height="30" as="geometry" />
        </mxCell>
        <mxCell id="I7XTmbxwMShyVWNgVzQ0-22" value="Users" style="rounded=0;whiteSpace=wrap;html=1;" vertex="1" parent="1">
          <mxGeometry x="610" y="180" width="155" height="30" as="geometry" />
        </mxCell>
        <mxCell id="I7XTmbxwMShyVWNgVzQ0-23" style="edgeStyle=orthogonalEdgeStyle;rounded=0;orthogonalLoop=1;jettySize=auto;html=1;entryX=0;entryY=0.5;entryDx=0;entryDy=0;" edge="1" parent="1" source="I7XTmbxwMShyVWNgVzQ0-24" target="I7XTmbxwMShyVWNgVzQ0-31">
          <mxGeometry relative="1" as="geometry" />
        </mxCell>
        <mxCell id="I7XTmbxwMShyVWNgVzQ0-24" value="" style="rounded=0;whiteSpace=wrap;html=1;" vertex="1" parent="1">
          <mxGeometry x="460" y="335" width="340" height="190" as="geometry" />
        </mxCell>
        <mxCell id="I7XTmbxwMShyVWNgVzQ0-25" value="" style="rounded=0;whiteSpace=wrap;html=1;" vertex="1" parent="1">
          <mxGeometry x="480" y="375" width="300" height="130" as="geometry" />
        </mxCell>
        <mxCell id="I7XTmbxwMShyVWNgVzQ0-26" value="Code" style="text;html=1;strokeColor=none;fillColor=none;align=center;verticalAlign=middle;whiteSpace=wrap;rounded=0;" vertex="1" parent="1">
          <mxGeometry x="480" y="335" width="60" height="30" as="geometry" />
        </mxCell>
        <mxCell id="I7XTmbxwMShyVWNgVzQ0-27" value="GUI (HTML/CSS/JS)" style="rounded=0;whiteSpace=wrap;html=1;" vertex="1" parent="1">
          <mxGeometry x="495" y="388" width="270" height="30" as="geometry" />
        </mxCell>
        <mxCell id="I7XTmbxwMShyVWNgVzQ0-28" value="Bussines" style="rounded=0;whiteSpace=wrap;html=1;" vertex="1" parent="1">
          <mxGeometry x="500" y="425" width="100" height="30" as="geometry" />
        </mxCell>
        <mxCell id="I7XTmbxwMShyVWNgVzQ0-29" value="Datalayer" style="rounded=0;whiteSpace=wrap;html=1;" vertex="1" parent="1">
          <mxGeometry x="500" y="465" width="270" height="30" as="geometry" />
        </mxCell>
        <mxCell id="I7XTmbxwMShyVWNgVzQ0-30" value="Account" style="rounded=0;whiteSpace=wrap;html=1;" vertex="1" parent="1">
          <mxGeometry x="610" y="425" width="155" height="30" as="geometry" />
        </mxCell>
        <mxCell id="I7XTmbxwMShyVWNgVzQ0-31" value="" style="rounded=0;whiteSpace=wrap;html=1;" vertex="1" parent="1">
          <mxGeometry x="460" y="590" width="340" height="190" as="geometry" />
        </mxCell>
        <mxCell id="I7XTmbxwMShyVWNgVzQ0-32" value="" style="rounded=0;whiteSpace=wrap;html=1;" vertex="1" parent="1">
          <mxGeometry x="480" y="630" width="300" height="130" as="geometry" />
        </mxCell>
        <mxCell id="I7XTmbxwMShyVWNgVzQ0-33" value="Code" style="text;html=1;strokeColor=none;fillColor=none;align=center;verticalAlign=middle;whiteSpace=wrap;rounded=0;" vertex="1" parent="1">
          <mxGeometry x="480" y="590" width="60" height="30" as="geometry" />
        </mxCell>
        <mxCell id="I7XTmbxwMShyVWNgVzQ0-34" value="GUI (HTML/CSS/JS)" style="rounded=0;whiteSpace=wrap;html=1;" vertex="1" parent="1">
          <mxGeometry x="495" y="643" width="270" height="30" as="geometry" />
        </mxCell>
        <mxCell id="I7XTmbxwMShyVWNgVzQ0-35" value="Bussines" style="rounded=0;whiteSpace=wrap;html=1;" vertex="1" parent="1">
          <mxGeometry x="500" y="680" width="100" height="30" as="geometry" />
        </mxCell>
        <mxCell id="I7XTmbxwMShyVWNgVzQ0-36" value="Datalayer" style="rounded=0;whiteSpace=wrap;html=1;" vertex="1" parent="1">
          <mxGeometry x="500" y="720" width="270" height="30" as="geometry" />
        </mxCell>
        <mxCell id="I7XTmbxwMShyVWNgVzQ0-37" value="Reporting" style="rounded=0;whiteSpace=wrap;html=1;" vertex="1" parent="1">
          <mxGeometry x="610" y="680" width="155" height="30" as="geometry" />
        </mxCell>
        <mxCell id="I7XTmbxwMShyVWNgVzQ0-38" value="" style="rounded=0;whiteSpace=wrap;html=1;" vertex="1" parent="1">
          <mxGeometry x="450" y="830" width="340" height="190" as="geometry" />
        </mxCell>
        <mxCell id="I7XTmbxwMShyVWNgVzQ0-39" value="" style="rounded=0;whiteSpace=wrap;html=1;" vertex="1" parent="1">
          <mxGeometry x="470" y="870" width="300" height="130" as="geometry" />
        </mxCell>
        <mxCell id="I7XTmbxwMShyVWNgVzQ0-40" value="Code" style="text;html=1;strokeColor=none;fillColor=none;align=center;verticalAlign=middle;whiteSpace=wrap;rounded=0;" vertex="1" parent="1">
          <mxGeometry x="470" y="830" width="60" height="30" as="geometry" />
        </mxCell>
        <mxCell id="I7XTmbxwMShyVWNgVzQ0-41" value="GUI (HTML/CSS/JS)" style="rounded=0;whiteSpace=wrap;html=1;" vertex="1" parent="1">
          <mxGeometry x="485" y="883" width="270" height="30" as="geometry" />
        </mxCell>
        <mxCell id="I7XTmbxwMShyVWNgVzQ0-42" value="Bussines" style="rounded=0;whiteSpace=wrap;html=1;" vertex="1" parent="1">
          <mxGeometry x="490" y="920" width="100" height="30" as="geometry" />
        </mxCell>
        <mxCell id="I7XTmbxwMShyVWNgVzQ0-43" value="Datalayer" style="rounded=0;whiteSpace=wrap;html=1;" vertex="1" parent="1">
          <mxGeometry x="490" y="960" width="270" height="30" as="geometry" />
        </mxCell>
        <mxCell id="I7XTmbxwMShyVWNgVzQ0-44" value="Search" style="rounded=0;whiteSpace=wrap;html=1;" vertex="1" parent="1">
          <mxGeometry x="600" y="920" width="155" height="30" as="geometry" />
        </mxCell>
        <mxCell id="I7XTmbxwMShyVWNgVzQ0-45" value="container" style="text;html=1;strokeColor=none;fillColor=none;align=center;verticalAlign=middle;whiteSpace=wrap;rounded=0;" vertex="1" parent="1">
          <mxGeometry x="460" y="300" width="60" height="30" as="geometry" />
        </mxCell>
        <mxCell id="I7XTmbxwMShyVWNgVzQ0-46" value="container" style="text;html=1;strokeColor=none;fillColor=none;align=center;verticalAlign=middle;whiteSpace=wrap;rounded=0;" vertex="1" parent="1">
          <mxGeometry x="460" y="560" width="60" height="30" as="geometry" />
        </mxCell>
        <mxCell id="I7XTmbxwMShyVWNgVzQ0-47" value="container" style="text;html=1;strokeColor=none;fillColor=none;align=center;verticalAlign=middle;whiteSpace=wrap;rounded=0;" vertex="1" parent="1">
          <mxGeometry x="450" y="800" width="60" height="30" as="geometry" />
        </mxCell>
        <mxCell id="I7XTmbxwMShyVWNgVzQ0-48" value="Kuberntes" style="text;html=1;strokeColor=none;fillColor=none;align=center;verticalAlign=middle;whiteSpace=wrap;rounded=0;" vertex="1" parent="1">
          <mxGeometry x="390" y="40" width="60" height="30" as="geometry" />
        </mxCell>
        <mxCell id="I7XTmbxwMShyVWNgVzQ0-49" value="Docker Engine" style="rounded=0;whiteSpace=wrap;html=1;" vertex="1" parent="1">
          <mxGeometry x="400" y="1025" width="420" height="30" as="geometry" />
        </mxCell>
        <mxCell id="I7XTmbxwMShyVWNgVzQ0-50" value="YAML Files" style="text;html=1;strokeColor=none;fillColor=none;align=center;verticalAlign=middle;whiteSpace=wrap;rounded=0;" vertex="1" parent="1">
          <mxGeometry x="450" y="40" width="100" height="30" as="geometry" />
        </mxCell>
        <mxCell id="I7XTmbxwMShyVWNgVzQ0-51" value="Post : Login" style="rounded=0;whiteSpace=wrap;html=1;" vertex="1" parent="1">
          <mxGeometry x="110" y="110" width="120" height="30" as="geometry" />
        </mxCell>
        <mxCell id="I7XTmbxwMShyVWNgVzQ0-52" value="Post : Signup" style="rounded=0;whiteSpace=wrap;html=1;" vertex="1" parent="1">
          <mxGeometry x="110" y="70" width="120" height="30" as="geometry" />
        </mxCell>
        <mxCell id="I7XTmbxwMShyVWNgVzQ0-53" value="Post: Logout" style="rounded=0;whiteSpace=wrap;html=1;" vertex="1" parent="1">
          <mxGeometry x="110" y="150" width="120" height="30" as="geometry" />
        </mxCell>
        <mxCell id="I7XTmbxwMShyVWNgVzQ0-54" value="Post :Managment" style="rounded=0;whiteSpace=wrap;html=1;" vertex="1" parent="1">
          <mxGeometry x="110" y="230" width="120" height="30" as="geometry" />
        </mxCell>
        <mxCell id="I7XTmbxwMShyVWNgVzQ0-55" value="Get: UserInfo" style="rounded=0;whiteSpace=wrap;html=1;" vertex="1" parent="1">
          <mxGeometry x="110" y="190" width="120" height="30" as="geometry" />
        </mxCell>
        <mxCell id="I7XTmbxwMShyVWNgVzQ0-56" value="&lt;h1 style=&quot;color: rgb(0 , 0 , 0) ; font-family: &amp;#34;helvetica&amp;#34; ; font-style: normal ; letter-spacing: normal ; text-align: left ; text-indent: 0px ; text-transform: none ; word-spacing: 0px ; background-color: rgb(248 , 249 , 250)&quot;&gt;Microservices&lt;/h1&gt;" style="text;whiteSpace=wrap;html=1;" vertex="1" parent="1">
          <mxGeometry x="485" width="340" height="50" as="geometry" />
        </mxCell>
        <mxCell id="I7XTmbxwMShyVWNgVzQ0-57" value="&lt;h1 style=&quot;color: rgb(0 , 0 , 0) ; font-family: &amp;#34;helvetica&amp;#34; ; font-style: normal ; letter-spacing: normal ; text-align: left ; text-indent: 0px ; text-transform: none ; word-spacing: 0px ; background-color: rgb(248 , 249 , 250)&quot;&gt;Monolithic&lt;/h1&gt;" style="text;whiteSpace=wrap;html=1;" vertex="1" parent="1">
          <mxGeometry x="100" y="310" width="190" height="60" as="geometry" />
        </mxCell>
        <mxCell id="I7XTmbxwMShyVWNgVzQ0-58" value="OS" style="rounded=0;whiteSpace=wrap;html=1;" vertex="1" parent="1">
          <mxGeometry x="400" y="1060" width="420" height="30" as="geometry" />
        </mxCell>
      </root>
    </mxGraphModel>
  </diagram>
</mxfile>
